<?xml version="1.0" encoding="UTF-8"?>
<!DOCTYPE svg PUBLIC "-//W3C//DTD SVG 1.1//EN" "http://www.w3.org/Graphics/SVG/1.1/DTD/svg11.dtd">
<svg version="1.1" xmlns="http://www.w3.org/2000/svg" xmlns:xlink="http://www.w3.org/1999/xlink" x="0" y="0" width="1000" height="500" viewBox="0, 0, 1000, 500">
  <g id="Layer1">
    <path d="M100.5,140.5 C100.5,140.5 160.5,100.5 260.5,100.5 C360.5,100.5 420.5,140.5 420.5,140.5" fill-opacity="0" stroke="#959595" stroke-width="3"/>
    <path d="M100.5,180.5 C100.5,180.5 180.5,149.5 260.5,149.5 C340.5,149.5 420.5,180.5 420.5,180.5" fill-opacity="0" stroke="#959595" stroke-width="3"/>
    <path d="M100.5,220.5 C100.5,220.5 180.5,200.5 260.5,200.5 C340.5,200.5 420.5,220.5 420.5,220.5" fill-opacity="0" stroke="#959595" stroke-width="3"/>
    <g>
      <path d="M420.5,340.5 C420.5,340.5 360.5,380.5 260.5,380.5 C160.5,380.5 100.5,340.5 100.5,340.5" fill-opacity="0" stroke="#959595" stroke-width="3"/>
      <path d="M420.5,300.5 C420.5,300.5 340.5,331.5 260.5,331.5 C180.5,331.5 100.5,300.5 100.5,300.5" fill-opacity="0" stroke="#959595" stroke-width="3"/>
      <path d="M420.5,260.5 C420.5,260.5 340.5,280.5 260.5,280.5 C180.5,280.5 100.5,260.5 100.5,260.5" fill-opacity="0" stroke="#959595" stroke-width="3"/>
    </g>
    <path d="M100.5,240.5 L420.5,240.5" fill-opacity="0" stroke="#959595" stroke-width="3"/>
    <g>
      <path d="M360.5,80.5 C360.5,80.5 400.5,140.5 400.5,240.5 C400.5,340.5 360.5,400.5 360.5,400.5" fill-opacity="0" stroke="#959595" stroke-width="3"/>
      <path d="M320.5,80.5 C320.5,80.5 351.5,160.5 351.5,240.5 C351.5,320.5 320.5,400.5 320.5,400.5" fill-opacity="0" stroke="#959595" stroke-width="3"/>
      <path d="M280.5,80.5 C280.5,80.5 300.5,160.5 300.5,240.5 C300.5,320.5 280.5,400.5 280.5,400.5" fill-opacity="0" stroke="#959595" stroke-width="3"/>
      <g>
        <path d="M160.5,400.5 C160.5,400.5 120.5,340.5 120.5,240.5 C120.5,140.5 160.5,80.5 160.5,80.5" fill-opacity="0" stroke="#959595" stroke-width="3"/>
        <path d="M200.5,400.5 C200.5,400.5 169.5,320.5 169.5,240.5 C169.5,160.5 200.5,80.5 200.5,80.5" fill-opacity="0" stroke="#959595" stroke-width="3"/>
        <path d="M240.5,400.5 C240.5,400.5 220.5,320.5 220.5,240.5 C220.5,160.5 240.5,80.5 240.5,80.5" fill-opacity="0" stroke="#959595" stroke-width="3"/>
      </g>
      <path d="M260.5,80.5 L260.5,400.5" fill-opacity="0" stroke="#959595" stroke-width="3"/>
    </g>
    <g>
      <path d="M900.5,89.5 C900.5,89.5 840.5,129.5 740.5,129.5 C640.5,129.5 580.5,89.5 580.5,89.5" fill-opacity="0" stroke="#959595" stroke-width="3"/>
      <path d="M900.5,143.5 C900.5,143.5 820.5,174.5 740.5,174.5 C660.5,174.5 580.5,143.5 580.5,143.5" fill-opacity="0" stroke="#959595" stroke-width="3"/>
      <path d="M900.5,189.5 C900.5,189.5 820.5,209.5 740.5,209.5 C660.5,209.5 580.5,189.5 580.5,189.5" fill-opacity="0" stroke="#959595" stroke-width="3"/>
    </g>
    <path d="M580.5,240.5 L900.5,240.5" fill-opacity="0" stroke="#959595" stroke-width="3"/>
    <g>
      <path d="M580.5,391.5 C580.5,391.5 640.5,351.5 740.5,351.5 C840.5,351.5 900.5,391.5 900.5,391.5" fill-opacity="0" stroke="#959595" stroke-width="3"/>
      <path d="M580.5,337.5 C580.5,337.5 660.5,306.5 740.5,306.5 C820.5,306.5 900.5,337.5 900.5,337.5" fill-opacity="0" stroke="#959595" stroke-width="3"/>
      <path d="M580.5,291.5 C580.5,291.5 660.5,271.5 740.5,271.5 C820.5,271.5 900.5,291.5 900.5,291.5" fill-opacity="0" stroke="#959595" stroke-width="3"/>
    </g>
    <g>
      <g>
        <path d="M891.5,400.5 C891.5,400.5 851.5,340.5 851.5,240.5 C851.5,140.5 891.5,80.5 891.5,80.5" fill-opacity="0" stroke="#959595" stroke-width="3"/>
        <path d="M837.5,400.5 C837.5,400.5 806.5,320.5 806.5,240.5 C806.5,160.5 837.5,80.5 837.5,80.5" fill-opacity="0" stroke="#959595" stroke-width="3"/>
        <path d="M791.5,400.5 C791.5,400.5 771.5,320.5 771.5,240.5 C771.5,160.5 791.5,80.5 791.5,80.5" fill-opacity="0" stroke="#959595" stroke-width="3"/>
      </g>
      <path d="M740.5,80.5 L740.5,400.5" fill-opacity="0" stroke="#959595" stroke-width="3"/>
      <g>
        <path d="M589.5,80.5 C589.5,80.5 629.5,140.5 629.5,240.5 C629.5,340.5 589.5,400.5 589.5,400.5" fill-opacity="0" stroke="#959595" stroke-width="3"/>
        <path d="M643.5,80.5 C643.5,80.5 674.5,160.5 674.5,240.5 C674.5,320.5 643.5,400.5 643.5,400.5" fill-opacity="0" stroke="#959595" stroke-width="3"/>
        <path d="M689.5,80.5 C689.5,80.5 709.5,160.5 709.5,240.5 C709.5,320.5 689.5,400.5 689.5,400.5" fill-opacity="0" stroke="#959595" stroke-width="3"/>
      </g>
    </g>
  </g>
</svg>
