<?xml version="1.0" encoding="UTF-8"?>
<!DOCTYPE svg PUBLIC "-//W3C//DTD SVG 1.1//EN" "http://www.w3.org/Graphics/SVG/1.1/DTD/svg11.dtd">
<svg version="1.1" xmlns="http://www.w3.org/2000/svg" xmlns:xlink="http://www.w3.org/1999/xlink" x="0" y="0" width="1200" height="700" viewBox="0, 0, 1200, 700">
  <g id="Layer_1">
    <g>
      <path d="M250,50 L350,50 L350,150 L250,150 z" fill="#FFFFFF"/>
      <path d="M250,50 L350,50 L350,150 L250,150 z" fill-opacity="0" stroke="#000000" stroke-width="1"/>
    </g>
    <g>
      <path d="M350,50 L450,50 L450,150 L350,150 z" fill="#FFFFFF"/>
      <path d="M350,50 L450,50 L450,150 L350,150 z" fill-opacity="0" stroke="#000000" stroke-width="1"/>
    </g>
    <g>
      <path d="M450,50 L550,50 L550,150 L450,150 z" fill="#000000"/>
      <path d="M450,50 L550,50 L550,150 L450,150 z" fill-opacity="0" stroke="#000000" stroke-width="1"/>
    </g>
    <g>
      <path d="M550,50 L650,50 L650,150 L550,150 z" fill="#FFFFFF"/>
      <path d="M550,50 L650,50 L650,150 L550,150 z" fill-opacity="0" stroke="#000000" stroke-width="1"/>
    </g>
    <g>
      <path d="M650,50 L750,50 L750,150 L650,150 z" fill="#000000"/>
      <path d="M650,50 L750,50 L750,150 L650,150 z" fill-opacity="0" stroke="#000000" stroke-width="1"/>
    </g>
    <g>
      <path d="M750,50 L850,50 L850,150 L750,150 z" fill="#FFFFFF"/>
      <path d="M750,50 L850,50 L850,150 L750,150 z" fill-opacity="0" stroke="#000000" stroke-width="1"/>
    </g>
    <g>
      <path d="M850,50 L950,50 L950,150 L850,150 z" fill="#FFFFFF"/>
      <path d="M850,50 L950,50 L950,150 L850,150 z" fill-opacity="0" stroke="#000000" stroke-width="1"/>
    </g>
    <g>
      <path d="M250,150 L350,150 L350,250 L250,250 z" fill="#FFFFFF"/>
      <path d="M250,150 L350,150 L350,250 L250,250 z" fill-opacity="0" stroke="#000000" stroke-width="1"/>
    </g>
    <g>
      <path d="M350,150 L450,150 L450,250 L350,250 z" fill="#000000"/>
      <path d="M350,150 L450,150 L450,250 L350,250 z" fill-opacity="0" stroke="#000000" stroke-width="1"/>
    </g>
    <g>
      <path d="M450,150 L550,150 L550,250 L450,250 z" fill="#FFFFFF"/>
      <path d="M450,150 L550,150 L550,250 L450,250 z" fill-opacity="0" stroke="#000000" stroke-width="1"/>
    </g>
    <g>
      <path d="M550,150 L650,150 L650,250 L550,250 z" fill="#000000"/>
      <path d="M550,150 L650,150 L650,250 L550,250 z" fill-opacity="0" stroke="#000000" stroke-width="1"/>
    </g>
    <g>
      <path d="M650,150 L750,150 L750,250 L650,250 z" fill="#FFFFFF"/>
      <path d="M650,150 L750,150 L750,250 L650,250 z" fill-opacity="0" stroke="#000000" stroke-width="1"/>
    </g>
    <g>
      <path d="M750,150 L850,150 L850,250 L750,250 z" fill="#000000"/>
      <path d="M750,150 L850,150 L850,250 L750,250 z" fill-opacity="0" stroke="#000000" stroke-width="1"/>
    </g>
    <g>
      <path d="M850,150 L950,150 L950,250 L850,250 z" fill="#FFFFFF"/>
      <path d="M850,150 L950,150 L950,250 L850,250 z" fill-opacity="0" stroke="#000000" stroke-width="1"/>
    </g>
    <g>
      <path d="M250,250 L350,250 L350,350 L250,350 z" fill="#FFFFFF"/>
      <path d="M250,250 L350,250 L350,350 L250,350 z" fill-opacity="0" stroke="#000000" stroke-width="1"/>
    </g>
    <g>
      <path d="M350,250 L450,250 L450,350 L350,350 z" fill="#000000"/>
      <path d="M350,250 L450,250 L450,350 L350,350 z" fill-opacity="0" stroke="#000000" stroke-width="1"/>
    </g>
    <g>
      <path d="M450,250 L550,250 L550,350 L450,350 z" fill="#FFFFFF"/>
      <path d="M450,250 L550,250 L550,350 L450,350 z" fill-opacity="0" stroke="#000000" stroke-width="1"/>
    </g>
    <g>
      <path d="M550,250 L650,250 L650,350 L550,350 z" fill="#FFFFFF"/>
      <path d="M550,250 L650,250 L650,350 L550,350 z" fill-opacity="0" stroke="#000000" stroke-width="1"/>
    </g>
    <g>
      <path d="M650,250 L750,250 L750,350 L650,350 z" fill="#FFFFFF"/>
      <path d="M650,250 L750,250 L750,350 L650,350 z" fill-opacity="0" stroke="#000000" stroke-width="1"/>
    </g>
    <g>
      <path d="M750,250 L850,250 L850,350 L750,350 z" fill="#000000"/>
      <path d="M750,250 L850,250 L850,350 L750,350 z" fill-opacity="0" stroke="#000000" stroke-width="1"/>
    </g>
    <g>
      <path d="M850,250 L950,250 L950,350 L850,350 z" fill="#FFFFFF"/>
      <path d="M850,250 L950,250 L950,350 L850,350 z" fill-opacity="0" stroke="#000000" stroke-width="1"/>
    </g>
    <g>
      <path d="M250,350 L350,350 L350,450 L250,450 z" fill="#FFFFFF"/>
      <path d="M250,350 L350,350 L350,450 L250,450 z" fill-opacity="0" stroke="#000000" stroke-width="1"/>
    </g>
    <g>
      <path d="M350,350 L450,350 L450,450 L350,450 z" fill="#000000"/>
      <path d="M350,350 L450,350 L450,450 L350,450 z" fill-opacity="0" stroke="#000000" stroke-width="1"/>
    </g>
    <g>
      <path d="M450,350 L550,350 L550,450 L450,450 z" fill="#FFFFFF"/>
      <path d="M450,350 L550,350 L550,450 L450,450 z" fill-opacity="0" stroke="#000000" stroke-width="1"/>
    </g>
    <g>
      <path d="M550,350 L650,350 L650,450 L550,450 z" fill="#FFFFFF"/>
      <path d="M550,350 L650,350 L650,450 L550,450 z" fill-opacity="0" stroke="#000000" stroke-width="1"/>
    </g>
    <g>
      <path d="M650,350 L750,350 L750,450 L650,450 z" fill="#000000"/>
      <path d="M650,350 L750,350 L750,450 L650,450 z" fill-opacity="0" stroke="#000000" stroke-width="1"/>
    </g>
    <g>
      <path d="M750,350 L850,350 L850,450 L750,450 z" fill="#FFFFFF"/>
      <path d="M750,350 L850,350 L850,450 L750,450 z" fill-opacity="0" stroke="#000000" stroke-width="1"/>
    </g>
    <g>
      <path d="M850,350 L950,350 L950,450 L850,450 z" fill="#FFFFFF"/>
      <path d="M850,350 L950,350 L950,450 L850,450 z" fill-opacity="0" stroke="#000000" stroke-width="1"/>
    </g>
    <g>
      <path d="M250,450 L350,450 L350,550 L250,550 z" fill="#FFFFFF"/>
      <path d="M250,450 L350,450 L350,550 L250,550 z" fill-opacity="0" stroke="#000000" stroke-width="1"/>
    </g>
    <g>
      <path d="M350,450 L450,450 L450,550 L350,550 z" fill="#FFFFFF"/>
      <path d="M350,450 L450,450 L450,550 L350,550 z" fill-opacity="0" stroke="#000000" stroke-width="1"/>
    </g>
    <g>
      <path d="M450,450 L550,450 L550,550 L450,550 z" fill="#000000"/>
      <path d="M450,450 L550,450 L550,550 L450,550 z" fill-opacity="0" stroke="#000000" stroke-width="1"/>
    </g>
    <g>
      <path d="M550,450 L650,450 L650,550 L550,550 z" fill="#000000"/>
      <path d="M550,450 L650,450 L650,550 L550,550 z" fill-opacity="0" stroke="#000000" stroke-width="1"/>
    </g>
    <g>
      <path d="M650,450 L750,450 L750,550 L650,550 z" fill="#FFFFFF"/>
      <path d="M650,450 L750,450 L750,550 L650,550 z" fill-opacity="0" stroke="#000000" stroke-width="1"/>
    </g>
    <g>
      <path d="M750,450 L850,450 L850,550 L750,550 z" fill="#FFFFFF"/>
      <path d="M750,450 L850,450 L850,550 L750,550 z" fill-opacity="0" stroke="#000000" stroke-width="1"/>
    </g>
    <g>
      <path d="M850,450 L950,450 L950,550 L850,550 z" fill="#FFFFFF"/>
      <path d="M850,450 L950,450 L950,550 L850,550 z" fill-opacity="0" stroke="#000000" stroke-width="1"/>
    </g>
    <g>
      <path d="M250,550 L350,550 L350,650 L250,650 z" fill="#FFFFFF"/>
      <path d="M250,550 L350,550 L350,650 L250,650 z" fill-opacity="0" stroke="#000000" stroke-width="1"/>
    </g>
    <g>
      <path d="M350,550 L450,550 L450,650 L350,650 z" fill="#FFFFFF"/>
      <path d="M350,550 L450,550 L450,650 L350,650 z" fill-opacity="0" stroke="#000000" stroke-width="1"/>
    </g>
    <g>
      <path d="M450,550 L550,550 L550,650 L450,650 z" fill="#FFFFFF"/>
      <path d="M450,550 L550,550 L550,650 L450,650 z" fill-opacity="0" stroke="#000000" stroke-width="1"/>
    </g>
    <g>
      <path d="M550,550 L650,550 L650,650 L550,650 z" fill="#FFFFFF"/>
      <path d="M550,550 L650,550 L650,650 L550,650 z" fill-opacity="0" stroke="#000000" stroke-width="1"/>
    </g>
    <g>
      <path d="M650,550 L750,550 L750,650 L650,650 z" fill="#FFFFFF"/>
      <path d="M650,550 L750,550 L750,650 L650,650 z" fill-opacity="0" stroke="#000000" stroke-width="1"/>
    </g>
    <g>
      <path d="M750,550 L850,550 L850,650 L750,650 z" fill="#FFFFFF"/>
      <path d="M750,550 L850,550 L850,650 L750,650 z" fill-opacity="0" stroke="#000000" stroke-width="1"/>
    </g>
    <g>
      <path d="M850,550 L950,550 L950,650 L850,650 z" fill="#FFFFFF"/>
      <path d="M850,550 L950,550 L950,650 L850,650 z" fill-opacity="0" stroke="#000000" stroke-width="1"/>
    </g>
  </g>
  <g id="Layer_2">
    <path d="M400,200 L500,100 L600,200 L700,100 L800,200 L800,300 L700,400 L600,500 L500,500 L400,400 L400,300 L400,200 z" fill-opacity="0" stroke="#FF0000" stroke-width="4"/>
    <path d="M400,212.5 C393.096,212.5 387.5,206.904 387.5,200 C387.5,193.096 393.096,187.5 400,187.5 C406.904,187.5 412.5,193.096 412.5,200 C412.5,206.904 406.904,212.5 400,212.5 z" fill-opacity="0" stroke="#FF0000" stroke-width="3"/>
  </g>
</svg>
