<?xml version="1.0" encoding="UTF-8"?>
<!DOCTYPE svg PUBLIC "-//W3C//DTD SVG 1.1//EN" "http://www.w3.org/Graphics/SVG/1.1/DTD/svg11.dtd">
<svg version="1.1" xmlns="http://www.w3.org/2000/svg" xmlns:xlink="http://www.w3.org/1999/xlink" x="0" y="0" width="1000" height="700" viewBox="0, 0, 1000, 700">
  <g id="axis">
    <g>
      <path d="M140.5,560.5 L140.5,96.9" fill-opacity="0" stroke="#A6A6A6" stroke-width="4"/>
      <path d="M145.3,96.9 L140.5,84.1 L135.7,96.9 z" fill="#A6A6A6" fill-opacity="1" stroke="#A6A6A6" stroke-width="4" stroke-opacity="1"/>
    </g>
    <g>
      <path d="M140.5,560.5 L884.1,560.5" fill-opacity="0" stroke="#A6A6A6" stroke-width="4"/>
      <path d="M884.1,565.3 L896.9,560.5 L884.1,555.7 z" fill="#A6A6A6" fill-opacity="1" stroke="#A6A6A6" stroke-width="4" stroke-opacity="1"/>
    </g>
    <g>
      <path d="M84.238,313.054 L85.465,313.054 C85.465,316.617 84.881,319.245 83.654,320.88 C82.545,322.516 81.085,323.333 79.274,323.333 C77.872,323.333 76.471,322.808 75.186,321.756 C73.843,320.647 72.675,317.727 71.623,313.054 L68.645,299.739 L58.483,322.866 L52,322.866 L66.659,291.329 C65.841,287.24 64.907,284.203 63.856,282.276 C62.746,280.29 61.403,279.298 59.768,279.298 C58.483,279.298 57.315,279.823 56.322,280.816 C55.387,281.809 54.862,283.327 54.745,285.43 L53.518,285.43 C53.577,282.042 54.219,279.356 55.504,277.37 C56.789,275.326 58.366,274.333 60.293,274.333 C61.52,274.333 62.688,274.859 63.797,275.852 C64.907,276.845 65.9,278.597 66.659,281.05 C67.477,283.503 68.762,288.584 70.455,296.293 L72.908,307.156 C73.901,311.653 74.894,314.631 76.004,316.15 C77.055,317.668 78.398,318.427 79.858,318.427 C82.428,318.427 83.888,316.617 84.238,313.054" fill="#A6A6A6" id="lambda"/>
      <path d="M103.524,323.333 L86.028,323.333 Q86.532,320.165 88.314,317.825 Q90.096,315.485 92.796,313.865 Q94.2,313.001 95.694,312.083 Q97.188,311.165 98.736,310.229 Q100.284,309.293 101.274,307.997 Q102.264,306.701 102.264,304.577 Q102.264,303.713 101.922,303.047 Q101.58,302.381 101.022,301.931 Q100.464,301.481 99.708,301.265 Q98.952,301.049 98.16,301.049 Q96.972,301.049 96.036,301.499 Q95.1,301.949 94.434,302.723 Q93.768,303.497 93.39,304.559 Q93.012,305.621 92.94,306.845 L89.052,306.845 Q89.232,304.793 89.916,303.083 Q90.6,301.373 91.788,300.167 Q92.976,298.961 94.668,298.295 Q96.36,297.629 98.52,297.629 Q100.176,297.629 101.598,298.061 Q103.02,298.493 104.082,299.357 Q105.144,300.221 105.756,301.553 Q106.368,302.885 106.368,304.649 Q106.368,306.737 105.558,308.285 Q104.748,309.833 103.434,311.039 Q102.12,312.245 100.482,313.235 Q98.844,314.225 97.206,315.197 Q95.568,316.169 94.056,317.231 Q92.544,318.293 91.536,319.661 L104.316,319.661 z" fill="#A6A6A6" id="two"/>
    </g>
    <g>
      <path d="M518.418,618.054 L519.645,618.054 C519.645,621.617 519.061,624.245 517.834,625.88 C516.725,627.516 515.265,628.333 513.454,628.333 C512.052,628.333 510.651,627.808 509.366,626.756 C508.023,625.647 506.855,622.727 505.803,618.054 L502.825,604.739 L492.663,627.866 L486.18,627.866 L500.839,596.328 C500.022,592.24 499.087,589.203 498.036,587.276 C496.926,585.29 495.583,584.298 493.948,584.298 C492.663,584.298 491.495,584.823 490.502,585.816 C489.567,586.809 489.042,588.327 488.925,590.43 L487.698,590.43 C487.757,587.042 488.399,584.356 489.684,582.37 C490.969,580.326 492.546,579.333 494.473,579.333 C495.7,579.333 496.868,579.859 497.977,580.852 C499.087,581.845 500.08,583.597 500.839,586.05 C501.657,588.503 502.942,593.584 504.635,601.293 L507.088,612.156 C508.081,616.653 509.074,619.631 510.184,621.15 C511.235,622.668 512.578,623.427 514.038,623.427 C516.608,623.427 518.068,621.617 518.418,618.054" fill="#A6A6A6" id="lambda"/>
      <path d="M524.932,607.309 Q527.488,607.309 529.72,606.319 Q531.952,605.329 533.212,603.133 L536.488,603.133 L531.196,628.333 L526.84,628.333 L530.656,609.937 Q529.036,610.297 527.47,610.423 Q525.904,610.549 524.248,610.549 z" fill="#A6A6A6" id="one"/>
    </g>
  </g>
  <g id="plot">
    <path d="M140.5,440.5 C180.5,440.244 211.205,448.91 233.872,474.91 C258.066,502.663 259.795,524.756 260.5,560.5" fill-opacity="0" stroke="#F42300" stroke-width="3"/>
    <path d="M260.5,560.5 C260.5,500.5 500.5,400.5 800.5,400.5" fill-opacity="0" stroke="#F42300" stroke-width="3"/>
    <path d="M140.5,440.5 C200.5,440.495 300.5,220.5 300.5,100.5" fill-opacity="0" stroke="#F42300" stroke-width="3"/>
    <path d="M186.562,136.906 L193.15,136.906 Q196.066,136.906 197.596,135.7 Q199.126,134.494 199.126,132.226 Q199.126,131.182 198.748,130.516 Q198.37,129.85 197.722,129.49 Q197.074,129.13 196.246,129.004 Q195.418,128.878 194.518,128.878 L188.218,128.878 z M184.402,125.206 L195.526,125.206 Q196.354,125.206 197.722,125.35 Q199.09,125.494 200.404,126.142 Q201.718,126.79 202.672,128.104 Q203.626,129.418 203.626,131.758 Q203.626,134.818 202.078,136.528 Q200.53,138.238 197.794,138.742 L197.794,138.814 Q199.414,139.426 199.972,140.632 Q200.53,141.838 200.53,143.458 Q200.53,144.79 200.314,146.122 Q200.098,147.454 200.134,148.786 Q200.134,149.326 200.224,149.866 Q200.314,150.406 200.602,150.91 L195.886,150.91 Q195.706,150.406 195.652,149.938 Q195.598,149.47 195.598,148.93 Q195.598,147.49 195.814,146.104 Q196.03,144.718 196.03,143.314 Q196.03,142.198 195.616,141.586 Q195.202,140.974 194.518,140.704 Q193.834,140.434 192.97,140.38 Q192.106,140.326 191.206,140.326 L185.842,140.326 L183.646,150.91 L179.074,150.91 z" fill="#F42300"/>
    <path d="M234.334,151.198 L216.046,143.098 L216.046,140.506 L234.334,132.406 L234.334,136.078 L220.87,141.802 L234.334,147.526 z" fill="#F42300"/>
    <path d="M246.394,141.766 Q246.394,141.514 246.502,140.182 Q246.61,138.85 246.988,137.014 Q247.366,135.178 248.104,133.108 Q248.842,131.038 250.138,129.274 Q251.434,127.51 253.36,126.358 Q255.286,125.206 258.022,125.206 Q262.054,125.206 263.764,127.726 Q265.474,130.246 265.474,134.854 Q265.474,135.646 265.294,137.176 Q265.114,138.706 264.664,140.542 Q264.214,142.378 263.386,144.322 Q262.558,146.266 261.28,147.832 Q260.002,149.398 258.166,150.406 Q256.33,151.414 253.846,151.414 Q251.83,151.414 250.408,150.712 Q248.986,150.01 248.104,148.732 Q247.222,147.454 246.808,145.69 Q246.394,143.926 246.394,141.766 z M261.37,133.666 Q261.37,132.694 261.19,131.776 Q261.01,130.858 260.578,130.156 Q260.146,129.454 259.408,129.04 Q258.67,128.626 257.554,128.626 Q256.258,128.626 255.232,129.4 Q254.206,130.174 253.414,131.434 Q252.622,132.694 252.064,134.26 Q251.506,135.826 251.164,137.428 Q250.822,139.03 250.66,140.488 Q250.498,141.946 250.498,142.954 Q250.498,143.926 250.678,144.844 Q250.858,145.762 251.29,146.464 Q251.722,147.166 252.46,147.58 Q253.198,147.994 254.314,147.994 Q255.61,147.994 256.636,147.22 Q257.662,146.446 258.454,145.186 Q259.246,143.926 259.804,142.36 Q260.362,140.794 260.704,139.192 Q261.046,137.59 261.208,136.132 Q261.37,134.674 261.37,133.666 z" fill="#F42300"/>
    <path d="M607.524,478.996 L614.112,478.996 Q617.028,478.996 618.558,477.79 Q620.088,476.584 620.088,474.316 Q620.088,473.272 619.71,472.606 Q619.332,471.94 618.684,471.58 Q618.036,471.22 617.208,471.094 Q616.38,470.968 615.48,470.968 L609.18,470.968 z M605.364,467.296 L616.488,467.296 Q617.316,467.296 618.684,467.44 Q620.052,467.584 621.366,468.232 Q622.68,468.88 623.634,470.194 Q624.588,471.508 624.588,473.848 Q624.588,476.908 623.04,478.618 Q621.492,480.328 618.756,480.832 L618.756,480.904 Q620.376,481.516 620.934,482.722 Q621.492,483.928 621.492,485.548 Q621.492,486.88 621.276,488.212 Q621.06,489.544 621.096,490.876 Q621.096,491.416 621.186,491.956 Q621.276,492.496 621.564,493 L616.848,493 Q616.668,492.496 616.614,492.028 Q616.56,491.56 616.56,491.02 Q616.56,489.58 616.776,488.194 Q616.992,486.808 616.992,485.404 Q616.992,484.288 616.578,483.676 Q616.164,483.064 615.48,482.794 Q614.796,482.524 613.932,482.47 Q613.068,482.416 612.168,482.416 L606.804,482.416 L604.608,493 L600.036,493 z" fill="#F42300"/>
    <path d="M655.296,493.288 L637.008,485.188 L637.008,482.596 L655.296,474.496 L655.296,478.168 L641.832,483.892 L655.296,489.616 z" fill="#F42300"/>
    <path d="M667.356,483.856 Q667.356,483.604 667.464,482.272 Q667.572,480.94 667.95,479.104 Q668.328,477.268 669.066,475.198 Q669.804,473.128 671.1,471.364 Q672.396,469.6 674.322,468.448 Q676.248,467.296 678.984,467.296 Q683.016,467.296 684.726,469.816 Q686.436,472.336 686.436,476.944 Q686.436,477.736 686.256,479.266 Q686.076,480.796 685.626,482.632 Q685.176,484.468 684.348,486.412 Q683.52,488.356 682.242,489.922 Q680.964,491.488 679.128,492.496 Q677.292,493.504 674.808,493.504 Q672.792,493.504 671.37,492.802 Q669.948,492.1 669.066,490.822 Q668.184,489.544 667.77,487.78 Q667.356,486.016 667.356,483.856 z M682.332,475.756 Q682.332,474.784 682.152,473.866 Q681.972,472.948 681.54,472.246 Q681.108,471.544 680.37,471.13 Q679.632,470.716 678.516,470.716 Q677.22,470.716 676.194,471.49 Q675.168,472.264 674.376,473.524 Q673.584,474.784 673.026,476.35 Q672.468,477.916 672.126,479.518 Q671.784,481.12 671.622,482.578 Q671.46,484.036 671.46,485.044 Q671.46,486.016 671.64,486.934 Q671.82,487.852 672.252,488.554 Q672.684,489.256 673.422,489.67 Q674.16,490.084 675.276,490.084 Q676.572,490.084 677.598,489.31 Q678.624,488.536 679.416,487.276 Q680.208,486.016 680.766,484.45 Q681.324,482.884 681.666,481.282 Q682.008,479.68 682.17,478.222 Q682.332,476.764 682.332,475.756 z" fill="#F42300"/>
    <path d="M157.524,498.245 L164.112,498.245 Q167.028,498.245 168.558,497.039 Q170.088,495.833 170.088,493.565 Q170.088,492.521 169.71,491.855 Q169.332,491.189 168.684,490.829 Q168.036,490.469 167.208,490.343 Q166.38,490.217 165.48,490.217 L159.18,490.217 z M155.364,486.545 L166.488,486.545 Q167.316,486.545 168.684,486.689 Q170.052,486.833 171.366,487.481 Q172.68,488.129 173.634,489.443 Q174.588,490.757 174.588,493.097 Q174.588,496.157 173.04,497.867 Q171.492,499.577 168.756,500.081 L168.756,500.153 Q170.376,500.765 170.934,501.971 Q171.492,503.177 171.492,504.797 Q171.492,506.129 171.276,507.461 Q171.06,508.793 171.096,510.125 Q171.096,510.665 171.186,511.205 Q171.276,511.745 171.564,512.249 L166.848,512.249 Q166.668,511.745 166.614,511.277 Q166.56,510.809 166.56,510.269 Q166.56,508.829 166.776,507.443 Q166.992,506.057 166.992,504.653 Q166.992,503.537 166.578,502.925 Q166.164,502.313 165.48,502.043 Q164.796,501.773 163.932,501.719 Q163.068,501.665 162.168,501.665 L156.804,501.665 L154.608,512.249 L150.036,512.249 z" fill="#F42300"/>
    <path d="M205.224,508.613 L187.08,508.613 L187.08,504.941 L205.224,504.941 z M205.224,501.341 L187.08,501.341 L187.08,497.669 L205.224,497.669 z" fill="#F42300"/>
    <path d="M217.356,502.853 Q217.356,502.601 217.464,501.269 Q217.572,499.937 217.95,498.101 Q218.328,496.265 219.066,494.195 Q219.804,492.125 221.1,490.361 Q222.396,488.597 224.322,487.445 Q226.248,486.293 228.984,486.293 Q233.016,486.293 234.726,488.813 Q236.436,491.333 236.436,495.941 Q236.436,496.733 236.256,498.263 Q236.076,499.793 235.626,501.629 Q235.176,503.465 234.348,505.409 Q233.52,507.353 232.242,508.919 Q230.964,510.485 229.128,511.493 Q227.292,512.501 224.808,512.501 Q222.792,512.501 221.37,511.799 Q219.948,511.097 219.066,509.819 Q218.184,508.541 217.77,506.777 Q217.356,505.013 217.356,502.853 z M232.332,494.753 Q232.332,493.781 232.152,492.863 Q231.972,491.945 231.54,491.243 Q231.108,490.541 230.37,490.127 Q229.632,489.713 228.516,489.713 Q227.22,489.713 226.194,490.487 Q225.168,491.261 224.376,492.521 Q223.584,493.781 223.026,495.347 Q222.468,496.913 222.126,498.515 Q221.784,500.117 221.622,501.575 Q221.46,503.033 221.46,504.041 Q221.46,505.013 221.64,505.931 Q221.82,506.849 222.252,507.551 Q222.684,508.253 223.422,508.667 Q224.16,509.081 225.276,509.081 Q226.572,509.081 227.598,508.307 Q228.624,507.533 229.416,506.273 Q230.208,505.013 230.766,503.447 Q231.324,501.881 231.666,500.279 Q232.008,498.677 232.17,497.219 Q232.332,495.761 232.332,494.753 z" fill="#F42300"/>
    <path d="M404.748,309.329 L411.336,309.329 Q414.252,309.329 415.782,308.123 Q417.312,306.917 417.312,304.649 Q417.312,303.605 416.934,302.939 Q416.556,302.273 415.908,301.913 Q415.26,301.553 414.432,301.427 Q413.604,301.301 412.704,301.301 L406.404,301.301 z M402.588,297.629 L413.712,297.629 Q414.54,297.629 415.908,297.773 Q417.276,297.917 418.59,298.565 Q419.904,299.213 420.858,300.527 Q421.812,301.841 421.812,304.181 Q421.812,307.241 420.264,308.951 Q418.716,310.661 415.98,311.165 L415.98,311.237 Q417.6,311.849 418.158,313.055 Q418.716,314.261 418.716,315.881 Q418.716,317.213 418.5,318.545 Q418.284,319.877 418.32,321.209 Q418.32,321.749 418.41,322.289 Q418.5,322.829 418.788,323.333 L414.072,323.333 Q413.892,322.829 413.838,322.361 Q413.784,321.893 413.784,321.353 Q413.784,319.913 414,318.527 Q414.216,317.141 414.216,315.737 Q414.216,314.621 413.802,314.009 Q413.388,313.397 412.704,313.127 Q412.02,312.857 411.156,312.803 Q410.292,312.749 409.392,312.749 L404.028,312.749 L401.832,323.333 L397.26,323.333 z" fill="#F42300"/>
    <path d="M447.696,314.225 L434.232,308.501 L434.232,304.829 L452.52,312.929 L452.52,315.521 L434.232,323.621 L434.232,319.949 z" fill="#F42300"/>
    <path d="M469.296,314.225 L455.832,308.501 L455.832,304.829 L474.12,312.929 L474.12,315.521 L455.832,323.621 L455.832,319.949 z" fill="#F42300"/>
    <path d="M486.18,314.189 Q486.18,313.937 486.288,312.605 Q486.396,311.273 486.774,309.437 Q487.152,307.601 487.89,305.531 Q488.628,303.461 489.924,301.697 Q491.22,299.933 493.146,298.781 Q495.072,297.629 497.808,297.629 Q501.84,297.629 503.55,300.149 Q505.26,302.669 505.26,307.277 Q505.26,308.069 505.08,309.599 Q504.9,311.129 504.45,312.965 Q504,314.801 503.172,316.745 Q502.344,318.689 501.066,320.255 Q499.788,321.821 497.952,322.829 Q496.116,323.837 493.632,323.837 Q491.616,323.837 490.194,323.135 Q488.772,322.433 487.89,321.155 Q487.008,319.877 486.594,318.113 Q486.18,316.349 486.18,314.189 z M501.156,306.089 Q501.156,305.117 500.976,304.199 Q500.796,303.281 500.364,302.579 Q499.932,301.877 499.194,301.463 Q498.456,301.049 497.34,301.049 Q496.044,301.049 495.018,301.823 Q493.992,302.597 493.2,303.857 Q492.408,305.117 491.85,306.683 Q491.292,308.249 490.95,309.851 Q490.608,311.453 490.446,312.911 Q490.284,314.369 490.284,315.377 Q490.284,316.349 490.464,317.267 Q490.644,318.185 491.076,318.887 Q491.508,319.589 492.246,320.003 Q492.984,320.417 494.1,320.417 Q495.396,320.417 496.422,319.643 Q497.448,318.869 498.24,317.609 Q499.032,316.349 499.59,314.783 Q500.148,313.217 500.49,311.615 Q500.832,310.013 500.994,308.555 Q501.156,307.097 501.156,306.089 z" fill="#F42300"/>
    <path d="M425.251,344.696 Q425.299,343.544 424.627,342.98 Q423.955,342.416 422.803,342.416 Q421.771,342.416 421.003,342.944 Q420.235,343.472 419.731,344.288 Q419.227,345.104 418.975,346.076 Q418.723,347.048 418.723,347.936 Q418.723,348.632 418.867,349.22 Q419.011,349.808 419.335,350.24 Q419.659,350.672 420.187,350.924 Q420.715,351.176 421.483,351.176 Q422.707,351.176 423.487,350.528 Q424.267,349.88 424.603,348.728 L427.339,348.728 Q426.667,351.128 425.083,352.232 Q423.499,353.336 421.027,353.336 Q419.803,353.336 418.867,352.952 Q417.931,352.568 417.295,351.86 Q416.659,351.152 416.323,350.18 Q415.987,349.208 415.987,348.032 Q415.987,346.472 416.467,345.056 Q416.947,343.64 417.859,342.572 Q418.771,341.504 420.079,340.88 Q421.387,340.256 423.043,340.256 Q424.075,340.256 424.987,340.544 Q425.899,340.832 426.571,341.384 Q427.243,341.936 427.627,342.776 Q428.011,343.616 427.987,344.696 z" fill="#F42300"/>
    <path d="M436.243,342.416 Q435.187,342.416 434.407,342.944 Q433.627,343.472 433.099,344.276 Q432.571,345.08 432.319,346.064 Q432.067,347.048 432.067,347.984 Q432.067,349.352 432.751,350.264 Q433.435,351.176 434.923,351.176 Q435.979,351.176 436.759,350.66 Q437.539,350.144 438.067,349.34 Q438.595,348.536 438.847,347.54 Q439.099,346.544 439.099,345.608 Q439.099,344.24 438.415,343.328 Q437.731,342.416 436.243,342.416 z M434.755,353.336 Q432.163,353.336 430.747,351.932 Q429.331,350.528 429.331,347.912 Q429.331,346.376 429.835,344.996 Q430.339,343.616 431.263,342.56 Q432.187,341.504 433.495,340.88 Q434.803,340.256 436.411,340.256 Q439.003,340.256 440.419,341.612 Q441.835,342.968 441.835,345.584 Q441.835,347.216 441.355,348.632 Q440.875,350.048 439.951,351.092 Q439.027,352.136 437.719,352.736 Q436.411,353.336 434.755,353.336 z" fill="#F42300"/>
    <path d="M445.555,340.592 L448.147,340.592 L447.643,343.016 L447.691,343.064 Q447.979,342.56 448.399,342.056 Q448.819,341.552 449.323,341.156 Q449.827,340.76 450.415,340.508 Q451.003,340.256 451.651,340.256 Q451.987,340.256 452.311,340.268 Q452.635,340.28 452.971,340.328 L452.395,342.944 Q452.155,342.896 451.915,342.872 Q451.675,342.848 451.435,342.848 Q450.379,342.848 449.599,343.22 Q448.819,343.592 448.279,344.24 Q447.739,344.888 447.403,345.728 Q447.067,346.568 446.875,347.504 L445.723,353 L442.987,353 z" fill="#F42300"/>
    <path d="M454.435,340.592 L457.003,340.592 L456.619,342.392 L456.667,342.44 Q457.411,341.408 458.527,340.832 Q459.643,340.256 460.939,340.256 Q462.811,340.256 463.687,341.144 Q464.563,342.032 464.563,343.544 Q464.563,343.88 464.539,344.312 Q464.515,344.744 464.443,345.08 L462.787,353 L460.051,353 L461.635,345.344 Q461.707,345.032 461.767,344.744 Q461.827,344.456 461.827,344.192 Q461.827,344.048 461.815,343.748 Q461.803,343.448 461.635,343.148 Q461.467,342.848 461.071,342.632 Q460.675,342.416 459.931,342.416 Q459.115,342.416 458.479,342.764 Q457.843,343.112 457.339,343.616 Q456.859,344.096 456.511,344.804 Q456.163,345.512 455.995,346.28 L454.603,353 L451.867,353 z" fill="#F42300"/>
    <path d="M475.579,345.704 Q475.603,345.584 475.603,345.5 Q475.603,345.416 475.603,345.32 L475.603,344.936 Q475.603,343.832 474.907,343.124 Q474.211,342.416 472.987,342.416 Q471.451,342.416 470.539,343.34 Q469.627,344.264 469.219,345.704 z M477.571,349.16 Q476.923,351.344 475.387,352.34 Q473.851,353.336 471.595,353.336 Q470.419,353.336 469.423,352.964 Q468.427,352.592 467.707,351.884 Q466.987,351.176 466.579,350.18 Q466.171,349.184 466.171,347.912 Q466.171,346.472 466.627,345.104 Q467.083,343.736 467.959,342.656 Q468.835,341.576 470.119,340.916 Q471.403,340.256 473.059,340.256 Q474.715,340.256 475.747,340.808 Q476.779,341.36 477.355,342.2 Q477.931,343.04 478.135,344.048 Q478.339,345.056 478.339,345.968 Q478.339,346.424 478.291,346.808 Q478.243,347.192 478.195,347.504 L468.955,347.504 Q468.931,347.624 468.919,347.72 Q468.907,347.816 468.907,347.912 L468.907,348.296 Q468.907,349.592 469.591,350.384 Q470.275,351.176 471.859,351.176 Q472.963,351.176 473.755,350.672 Q474.547,350.168 474.835,349.16 z" fill="#F42300"/>
    <path d="M481.555,340.592 L484.147,340.592 L483.643,343.016 L483.691,343.064 Q483.979,342.56 484.399,342.056 Q484.819,341.552 485.323,341.156 Q485.827,340.76 486.415,340.508 Q487.003,340.256 487.651,340.256 Q487.987,340.256 488.311,340.268 Q488.635,340.28 488.971,340.328 L488.395,342.944 Q488.155,342.896 487.915,342.872 Q487.675,342.848 487.435,342.848 Q486.379,342.848 485.599,343.22 Q484.819,343.592 484.279,344.24 Q483.739,344.888 483.403,345.728 Q483.067,346.568 482.875,347.504 L481.723,353 L478.987,353 z" fill="#F42300"/>
    <path d="M624.856,513.593 Q624.88,513.473 624.88,513.389 Q624.88,513.305 624.88,513.209 L624.88,512.825 Q624.88,511.721 624.184,511.013 Q623.488,510.305 622.264,510.305 Q620.728,510.305 619.816,511.229 Q618.904,512.153 618.496,513.593 z M626.848,517.049 Q626.2,519.233 624.664,520.229 Q623.128,521.225 620.872,521.225 Q619.696,521.225 618.7,520.853 Q617.704,520.481 616.984,519.773 Q616.264,519.065 615.856,518.069 Q615.448,517.073 615.448,515.801 Q615.448,514.361 615.904,512.993 Q616.36,511.625 617.236,510.545 Q618.112,509.465 619.396,508.805 Q620.68,508.145 622.336,508.145 Q623.992,508.145 625.024,508.697 Q626.056,509.249 626.632,510.089 Q627.208,510.929 627.412,511.937 Q627.616,512.945 627.616,513.857 Q627.616,514.313 627.568,514.697 Q627.52,515.081 627.472,515.393 L618.232,515.393 Q618.208,515.513 618.196,515.609 Q618.184,515.705 618.184,515.801 L618.184,516.185 Q618.184,517.481 618.868,518.273 Q619.552,519.065 621.136,519.065 Q622.24,519.065 623.032,518.561 Q623.824,518.057 624.112,517.049 z" fill="#F42300"/>
    <path d="M639.784,520.889 L637.168,520.889 L637.552,519.209 L637.504,519.161 Q636.688,520.361 635.704,520.793 Q634.72,521.225 633.616,521.225 Q633.088,521.225 632.272,521.081 Q631.456,520.937 630.676,520.421 Q629.896,519.905 629.344,518.897 Q628.792,517.889 628.792,516.137 Q628.792,514.625 629.248,513.197 Q629.704,511.769 630.568,510.641 Q631.432,509.513 632.68,508.829 Q633.928,508.145 635.536,508.145 Q636.784,508.145 637.792,508.601 Q638.8,509.057 639.28,510.185 L639.328,510.185 L640.696,503.753 L643.432,503.753 z M638.608,513.281 Q638.608,512.681 638.452,512.129 Q638.296,511.577 637.972,511.181 Q637.648,510.785 637.12,510.545 Q636.592,510.305 635.872,510.305 Q634.72,510.305 633.904,510.821 Q633.088,511.337 632.56,512.177 Q632.032,513.017 631.78,514.061 Q631.528,515.105 631.528,516.137 Q631.528,517.529 632.224,518.297 Q632.92,519.065 634.36,519.065 Q635.416,519.065 636.208,518.513 Q637,517.961 637.54,517.109 Q638.08,516.257 638.344,515.237 Q638.608,514.217 638.608,513.281 z" fill="#F42300"/>
    <path d="M646.408,515.657 Q646.408,516.281 646.552,516.845 Q646.696,517.409 647.008,517.829 Q647.32,518.249 647.812,518.489 Q648.304,518.729 649,518.729 Q650.104,518.729 650.884,518.225 Q651.664,517.721 652.168,516.929 Q652.672,516.137 652.9,515.153 Q653.128,514.169 653.128,513.233 Q653.128,511.865 652.432,511.085 Q651.736,510.305 650.368,510.305 Q649.36,510.305 648.616,510.821 Q647.872,511.337 647.38,512.129 Q646.888,512.921 646.648,513.869 Q646.408,514.817 646.408,515.657 z M654.304,520.553 Q653.992,521.969 653.524,522.977 Q653.056,523.985 652.324,524.609 Q651.592,525.233 650.548,525.521 Q649.504,525.809 648.04,525.809 Q646.984,525.809 646.036,525.593 Q645.088,525.377 644.356,524.909 Q643.624,524.441 643.18,523.685 Q642.736,522.929 642.712,521.849 L645.448,521.849 Q645.496,522.905 646.3,523.337 Q647.104,523.769 648.28,523.769 Q649.192,523.769 649.792,523.505 Q650.392,523.241 650.788,522.785 Q651.184,522.329 651.4,521.693 Q651.616,521.057 651.784,520.289 L652.048,519.065 L652,519.017 Q650.704,520.889 648.496,520.889 Q646.168,520.889 644.92,519.533 Q643.672,518.177 643.672,515.801 Q643.672,514.409 644.092,513.029 Q644.512,511.649 645.316,510.569 Q646.12,509.489 647.32,508.817 Q648.52,508.145 650.08,508.145 Q651.448,508.145 652.432,508.697 Q653.416,509.249 653.92,510.545 L653.968,510.545 L654.328,508.481 L656.92,508.481 z" fill="#F42300"/>
    <path d="M667.096,513.593 Q667.12,513.473 667.12,513.389 Q667.12,513.305 667.12,513.209 L667.12,512.825 Q667.12,511.721 666.424,511.013 Q665.728,510.305 664.504,510.305 Q662.968,510.305 662.056,511.229 Q661.144,512.153 660.736,513.593 z M669.088,517.049 Q668.44,519.233 666.904,520.229 Q665.368,521.225 663.112,521.225 Q661.936,521.225 660.94,520.853 Q659.944,520.481 659.224,519.773 Q658.504,519.065 658.096,518.069 Q657.688,517.073 657.688,515.801 Q657.688,514.361 658.144,512.993 Q658.6,511.625 659.476,510.545 Q660.352,509.465 661.636,508.805 Q662.92,508.145 664.576,508.145 Q666.232,508.145 667.264,508.697 Q668.296,509.249 668.872,510.089 Q669.448,510.929 669.652,511.937 Q669.856,512.945 669.856,513.857 Q669.856,514.313 669.808,514.697 Q669.76,515.081 669.712,515.393 L660.472,515.393 Q660.448,515.513 660.436,515.609 Q660.424,515.705 660.424,515.801 L660.424,516.185 Q660.424,517.481 661.108,518.273 Q661.792,519.065 663.376,519.065 Q664.48,519.065 665.272,518.561 Q666.064,518.057 666.352,517.049 z" fill="#F42300"/>
    <path d="M207.046,173.037 Q207.07,172.917 207.07,172.833 Q207.07,172.749 207.07,172.653 L207.07,172.269 Q207.07,171.165 206.374,170.457 Q205.678,169.749 204.454,169.749 Q202.918,169.749 202.006,170.673 Q201.094,171.597 200.686,173.037 z M209.038,176.493 Q208.39,178.677 206.854,179.673 Q205.318,180.669 203.062,180.669 Q201.886,180.669 200.89,180.297 Q199.894,179.925 199.174,179.217 Q198.454,178.509 198.046,177.513 Q197.638,176.517 197.638,175.245 Q197.638,173.805 198.094,172.437 Q198.55,171.069 199.426,169.989 Q200.302,168.909 201.586,168.249 Q202.87,167.589 204.526,167.589 Q206.182,167.589 207.214,168.141 Q208.246,168.693 208.822,169.533 Q209.398,170.373 209.602,171.381 Q209.806,172.389 209.806,173.301 Q209.806,173.757 209.758,174.141 Q209.71,174.525 209.662,174.837 L200.422,174.837 Q200.398,174.957 200.386,175.053 Q200.374,175.149 200.374,175.245 L200.374,175.629 Q200.374,176.925 201.058,177.717 Q201.742,178.509 203.326,178.509 Q204.43,178.509 205.222,178.005 Q206.014,177.501 206.302,176.493 z" fill="#F42300"/>
    <path d="M221.974,180.333 L219.358,180.333 L219.742,178.653 L219.694,178.605 Q218.878,179.805 217.894,180.237 Q216.91,180.669 215.806,180.669 Q215.278,180.669 214.462,180.525 Q213.646,180.381 212.866,179.865 Q212.086,179.349 211.534,178.341 Q210.982,177.333 210.982,175.581 Q210.982,174.069 211.438,172.641 Q211.894,171.213 212.758,170.085 Q213.622,168.957 214.87,168.273 Q216.118,167.589 217.726,167.589 Q218.974,167.589 219.982,168.045 Q220.99,168.501 221.47,169.629 L221.518,169.629 L222.886,163.197 L225.622,163.197 z M220.798,172.725 Q220.798,172.125 220.642,171.573 Q220.486,171.021 220.162,170.625 Q219.838,170.229 219.31,169.989 Q218.782,169.749 218.062,169.749 Q216.91,169.749 216.094,170.265 Q215.278,170.781 214.75,171.621 Q214.222,172.461 213.97,173.505 Q213.718,174.549 213.718,175.581 Q213.718,176.973 214.414,177.741 Q215.11,178.509 216.55,178.509 Q217.606,178.509 218.398,177.957 Q219.19,177.405 219.73,176.553 Q220.27,175.701 220.534,174.681 Q220.798,173.661 220.798,172.725 z" fill="#F42300"/>
    <path d="M228.598,175.101 Q228.598,175.725 228.742,176.289 Q228.886,176.853 229.198,177.273 Q229.51,177.693 230.002,177.933 Q230.494,178.173 231.19,178.173 Q232.294,178.173 233.074,177.669 Q233.854,177.165 234.358,176.373 Q234.862,175.581 235.09,174.597 Q235.318,173.613 235.318,172.677 Q235.318,171.309 234.622,170.529 Q233.926,169.749 232.558,169.749 Q231.55,169.749 230.806,170.265 Q230.062,170.781 229.57,171.573 Q229.078,172.365 228.838,173.313 Q228.598,174.261 228.598,175.101 z M236.494,179.997 Q236.182,181.413 235.714,182.421 Q235.246,183.429 234.514,184.053 Q233.782,184.677 232.738,184.965 Q231.694,185.253 230.23,185.253 Q229.174,185.253 228.226,185.037 Q227.278,184.821 226.546,184.353 Q225.814,183.885 225.37,183.129 Q224.926,182.373 224.902,181.293 L227.638,181.293 Q227.686,182.349 228.49,182.781 Q229.294,183.213 230.47,183.213 Q231.382,183.213 231.982,182.949 Q232.582,182.685 232.978,182.229 Q233.374,181.773 233.59,181.137 Q233.806,180.501 233.974,179.733 L234.238,178.509 L234.19,178.461 Q232.894,180.333 230.686,180.333 Q228.358,180.333 227.11,178.977 Q225.862,177.621 225.862,175.245 Q225.862,173.853 226.282,172.473 Q226.702,171.093 227.506,170.013 Q228.31,168.933 229.51,168.261 Q230.71,167.589 232.27,167.589 Q233.638,167.589 234.622,168.141 Q235.606,168.693 236.11,169.989 L236.158,169.989 L236.518,167.925 L239.11,167.925 z" fill="#F42300"/>
    <path d="M249.286,173.037 Q249.31,172.917 249.31,172.833 Q249.31,172.749 249.31,172.653 L249.31,172.269 Q249.31,171.165 248.614,170.457 Q247.918,169.749 246.694,169.749 Q245.158,169.749 244.246,170.673 Q243.334,171.597 242.926,173.037 z M251.278,176.493 Q250.63,178.677 249.094,179.673 Q247.558,180.669 245.302,180.669 Q244.126,180.669 243.13,180.297 Q242.134,179.925 241.414,179.217 Q240.694,178.509 240.286,177.513 Q239.878,176.517 239.878,175.245 Q239.878,173.805 240.334,172.437 Q240.79,171.069 241.666,169.989 Q242.542,168.909 243.826,168.249 Q245.11,167.589 246.766,167.589 Q248.422,167.589 249.454,168.141 Q250.486,168.693 251.062,169.533 Q251.638,170.373 251.842,171.381 Q252.046,172.389 252.046,173.301 Q252.046,173.757 251.998,174.141 Q251.95,174.525 251.902,174.837 L242.662,174.837 Q242.638,174.957 242.626,175.053 Q242.614,175.149 242.614,175.245 L242.614,175.629 Q242.614,176.925 243.298,177.717 Q243.982,178.509 245.566,178.509 Q246.67,178.509 247.462,178.005 Q248.254,177.501 248.542,176.493 z" fill="#F42300"/>
    <path d="M181.452,532.632 L179.412,532.632 L179.82,530.592 L181.86,530.592 Q182.076,529.512 182.316,528.648 Q182.556,527.784 183.012,527.16 Q183.468,526.536 184.236,526.2 Q185.004,525.864 186.252,525.864 Q186.804,525.864 187.308,525.924 Q187.812,525.984 188.292,526.032 L187.836,528.12 Q187.428,528.024 186.78,528.024 Q186.084,528.024 185.712,528.216 Q185.34,528.408 185.136,528.756 Q184.932,529.104 184.836,529.572 Q184.74,530.04 184.596,530.592 L186.996,530.592 L186.588,532.632 L184.188,532.632 L182.028,543 L179.292,543 z" fill="#F42300"/>
    <path d="M189.636,525.864 L192.372,525.864 L188.82,543 L186.084,543 z" fill="#F42300"/>
    <path d="M194.676,539.592 Q194.676,540.048 194.88,540.348 Q195.084,540.648 195.396,540.828 Q195.708,541.008 196.092,541.092 Q196.476,541.176 196.86,541.176 Q197.868,541.176 198.552,540.84 Q199.236,540.504 199.68,539.928 Q200.124,539.352 200.376,538.572 Q200.628,537.792 200.772,536.904 L200.724,536.856 Q200.436,537.144 199.956,537.264 Q199.476,537.384 199.02,537.432 Q198.444,537.48 197.688,537.528 Q196.932,537.576 196.272,537.78 Q195.612,537.984 195.144,538.404 Q194.676,538.824 194.676,539.592 z M202.908,539.4 Q202.836,539.736 202.752,540.048 Q202.668,540.36 202.668,540.624 Q202.668,540.888 202.788,541.032 Q202.908,541.176 203.244,541.176 Q203.484,541.176 203.724,541.116 Q203.964,541.056 204.204,541.032 L203.772,543 Q203.244,543.12 202.716,543.228 Q202.188,543.336 201.636,543.336 Q200.94,543.336 200.484,542.904 Q200.028,542.472 199.98,541.752 Q199.164,542.568 198.06,542.952 Q196.956,543.336 195.804,543.336 Q195.036,543.336 194.34,543.12 Q193.644,542.904 193.104,542.496 Q192.564,542.088 192.252,541.464 Q191.94,540.84 191.94,540.024 Q191.94,538.872 192.372,538.092 Q192.804,537.312 193.524,536.808 Q194.244,536.304 195.18,536.064 Q196.116,535.824 197.148,535.752 Q198.54,535.656 199.884,535.536 Q200.628,535.488 200.976,535.044 Q201.324,534.6 201.324,533.904 Q201.324,533.016 200.7,532.716 Q200.076,532.416 199.236,532.416 Q198.084,532.416 197.256,532.812 Q196.428,533.208 196.14,534.36 L193.548,534.36 Q193.764,533.208 194.292,532.428 Q194.82,531.648 195.588,531.156 Q196.356,530.664 197.328,530.46 Q198.3,530.256 199.404,530.256 Q201.084,530.256 202.032,530.58 Q202.98,530.904 203.424,531.36 Q203.868,531.816 203.964,532.308 Q204.06,532.8 204.06,533.136 Q204.06,533.952 203.82,535.008 z" fill="#F42300"/>
    <path d="M209.316,526.872 L211.98,526.872 L211.212,530.592 L213.684,530.592 L213.252,532.632 L210.78,532.632 L209.508,538.704 Q209.412,539.112 209.34,539.472 Q209.268,539.832 209.268,540.048 Q209.268,540.456 209.448,540.708 Q209.628,540.96 210.252,540.96 Q210.564,540.96 210.936,540.948 Q211.308,540.936 211.716,540.84 L211.26,542.856 Q210.732,542.976 210.132,543.048 Q209.532,543.12 209.004,543.12 Q208.26,543.12 207.78,542.928 Q207.3,542.736 207.024,542.412 Q206.748,542.088 206.64,541.668 Q206.532,541.248 206.532,540.816 Q206.532,540.456 206.592,540.024 Q206.652,539.592 206.7,539.424 L208.116,532.632 L205.956,532.632 L206.388,530.592 L208.548,530.592 z" fill="#F42300"/>
  </g>
</svg>
