<?xml version="1.0" encoding="UTF-8"?>
<!DOCTYPE svg PUBLIC "-//W3C//DTD SVG 1.1//EN" "http://www.w3.org/Graphics/SVG/1.1/DTD/svg11.dtd">
<svg version="1.1" xmlns="http://www.w3.org/2000/svg" xmlns:xlink="http://www.w3.org/1999/xlink" x="0" y="0" width="840"
  height="700" viewBox="0, 0, 840, 700">
  <g id="Axes">
    <g>
      <path d="M100.5,640.5 L100.5,76.9" fill-opacity="0" stroke="#A6A6A6" stroke-width="4" />
      <path d="M105.3,76.9 L100.5,64.1 L95.7,76.9 z" fill="#A6A6A6" fill-opacity="1" stroke="#A6A6A6" stroke-width="4"
        stroke-opacity="1" />
    </g>
    <g>
      <path d="M60.5,600.5 L784.1,600.5" fill-opacity="0" stroke="#A6A6A6" stroke-width="4" />
      <path d="M784.1,605.3 L796.9,600.5 L784.1,595.7 z" fill="#A6A6A6" fill-opacity="1" stroke="#A6A6A6"
        stroke-width="4" stroke-opacity="1" />
    </g>
    <text transform="matrix(1, 0, 0, 1, 780, 645)">
      <tspan x="-12.672" y="-2" font-family="HelveticaNeue-MediumItalic" font-size="24" fill="#929292">x1</tspan>
    </text>
    <text transform="matrix(1, 0, 0, 1, 60, 80)">
      <tspan x="-12.672" y="3" font-family="HelveticaNeue-MediumItalic" font-size="24" fill="#929292">x2</tspan>
    </text>
  </g>
  <g id="data">
    <path
      d="M168.956,484.853 C163.463,484.276 159.478,479.356 160.056,473.863 C160.633,468.37 165.553,464.386 171.046,464.963 C176.539,465.54 180.523,470.461 179.946,475.954 C179.369,481.446 174.448,485.431 168.956,484.853 z"
      fill="#F37B00" />
    <path
      d="M320.732,380.145 C315.239,379.568 311.255,374.647 311.832,369.154 C312.409,363.662 317.33,359.677 322.823,360.254 C328.315,360.832 332.3,365.752 331.723,371.245 C331.145,376.738 326.225,380.722 320.732,380.145 z"
      fill="#F37B00" />
    <path
      d="M278.861,395.854 C273.368,395.277 269.383,390.356 269.961,384.864 C270.538,379.371 275.459,375.386 280.951,375.964 C286.444,376.541 290.428,381.462 289.851,386.954 C289.274,392.447 284.353,396.431 278.861,395.854 z"
      fill="#F37B00" />
    <path
      d="M254.789,433.544 C249.296,432.967 245.312,428.047 245.889,422.554 C246.466,417.061 251.387,413.077 256.88,413.654 C262.372,414.231 266.357,419.152 265.779,424.645 C265.202,430.137 260.282,434.122 254.789,433.544 z"
      fill="#F37B00" />
    <path
      d="M228.956,479.946 C223.463,479.369 219.478,474.448 220.056,468.956 C220.633,463.463 225.553,459.478 231.046,460.056 C236.539,460.633 240.523,465.553 239.946,471.046 C239.369,476.539 234.448,480.523 228.956,479.946 z"
      fill="#F37B00" />
    <path
      d="M217.099,409.473 C211.606,408.896 207.621,403.975 208.199,398.482 C208.776,392.99 213.697,389.005 219.189,389.582 C224.682,390.16 228.666,395.08 228.089,400.573 C227.512,406.066 222.591,410.05 217.099,409.473 z"
      fill="#F37B00" />
    <path
      d="M316.551,419.926 C311.058,419.348 307.074,414.428 307.651,408.935 C308.228,403.443 313.149,399.458 318.641,400.035 C324.134,400.613 328.119,405.533 327.541,411.026 C326.964,416.518 322.043,420.503 316.551,419.926 z"
      fill="#F37B00" />
    <path
      d="M468.327,315.217 C462.835,314.64 458.85,309.719 459.427,304.227 C460.005,298.734 464.925,294.749 470.418,295.327 C475.91,295.904 479.895,300.825 479.318,306.317 C478.741,311.81 473.82,315.794 468.327,315.217 z"
      fill="#F37B00" />
    <path
      d="M426.456,330.926 C420.963,330.349 416.979,325.428 417.556,319.936 C418.133,314.443 423.054,310.459 428.546,311.036 C434.039,311.613 438.024,316.534 437.446,322.026 C436.869,327.519 431.948,331.504 426.456,330.926 z"
      fill="#F37B00" />
    <path
      d="M402.384,368.617 C396.892,368.039 392.907,363.119 393.484,357.626 C394.062,352.134 398.982,348.149 404.475,348.726 C409.967,349.304 413.952,354.224 413.375,359.717 C412.798,365.209 407.877,369.194 402.384,368.617 z"
      fill="#F37B00" />
    <path
      d="M360.513,384.326 C355.02,383.749 351.036,378.828 351.613,373.335 C352.19,367.843 357.111,363.858 362.603,364.436 C368.096,365.013 372.081,369.933 371.503,375.426 C370.926,380.919 366.005,384.903 360.513,384.326 z"
      fill="#F37B00" />
    <path
      d="M364.694,344.545 C359.201,343.968 355.217,339.047 355.794,333.555 C356.371,328.062 361.292,324.077 366.785,324.655 C372.277,325.232 376.262,330.153 375.685,335.645 C375.107,341.138 370.187,345.122 364.694,344.545 z"
      fill="#F37B00" />
    <path
      d="M408.656,308.945 C403.163,308.368 399.179,303.447 399.756,297.955 C400.333,292.462 405.254,288.478 410.747,289.055 C416.239,289.632 420.224,294.553 419.647,300.045 C419.069,305.538 414.149,309.523 408.656,308.945 z"
      fill="#F37B00" />
    <path
      d="M554.161,263.908 C548.668,263.331 544.684,258.41 545.261,252.918 C545.838,247.425 550.759,243.44 556.251,244.018 C561.744,244.595 565.729,249.516 565.151,255.008 C564.574,260.501 559.653,264.485 554.161,263.908 z"
      fill="#F37B00" />
    <path
      d="M518.561,219.946 C513.068,219.369 509.084,214.448 509.661,208.956 C510.238,203.463 515.159,199.478 520.652,200.056 C526.144,200.633 530.129,205.553 529.552,211.046 C528.974,216.539 524.054,220.523 518.561,219.946 z"
      fill="#F37B00" />
    <path
      d="M492.399,277.527 C486.906,276.949 482.922,272.029 483.499,266.536 C484.076,261.044 488.997,257.059 494.49,257.636 C499.982,258.214 503.967,263.134 503.389,268.627 C502.812,274.119 497.892,278.104 492.399,277.527 z"
      fill="#F37B00" />
    <path
      d="M452.618,273.346 C447.125,272.768 443.141,267.848 443.718,262.355 C444.295,256.863 449.216,252.878 454.709,253.455 C460.201,254.033 464.186,258.953 463.609,264.446 C463.031,269.938 458.111,273.923 452.618,273.346 z"
      fill="#F37B00" />
    <path
      d="M456.799,233.565 C451.307,232.987 447.322,228.067 447.899,222.574 C448.477,217.082 453.397,213.097 458.89,213.674 C464.382,214.252 468.367,219.172 467.79,224.665 C467.212,230.157 462.292,234.142 456.799,233.565 z"
      fill="#F37B00" />
    <path
      d="M600.615,306.155 C606.096,306.829 609.995,311.818 609.322,317.3 C608.648,322.781 603.659,326.679 598.177,326.006 C592.696,325.333 588.798,320.344 589.471,314.862 C590.144,309.381 595.133,305.482 600.615,306.155 z"
      fill="#00A8AA" />
    <path
      d="M447.034,408.199 C452.516,408.872 456.414,413.862 455.741,419.344 C455.068,424.825 450.078,428.723 444.597,428.05 C439.115,427.377 435.217,422.388 435.89,416.906 C436.563,411.424 441.552,407.526 447.034,408.199 z"
      fill="#00A8AA" />
    <path
      d="M489.173,393.223 C494.655,393.896 498.553,398.886 497.88,404.367 C497.207,409.849 492.218,413.747 486.736,413.074 C481.254,412.401 477.356,407.412 478.029,401.93 C478.702,396.448 483.692,392.55 489.173,393.223 z"
      fill="#00A8AA" />
    <path
      d="M513.899,355.959 C519.381,356.632 523.279,361.621 522.606,367.103 C521.933,372.585 516.943,376.483 511.462,375.81 C505.98,375.137 502.082,370.147 502.755,364.665 C503.428,359.184 508.417,355.286 513.899,355.959 z"
      fill="#00A8AA" />
    <path
      d="M556.038,340.983 C561.52,341.656 565.418,346.645 564.745,352.127 C564.072,357.608 559.083,361.507 553.601,360.833 C548.119,360.16 544.221,355.171 544.894,349.689 C545.567,344.208 550.557,340.31 556.038,340.983 z"
      fill="#00A8AA" />
    <path
      d="M551.163,380.684 C556.645,381.357 560.543,386.347 559.87,391.829 C559.197,397.31 554.208,401.208 548.726,400.535 C543.244,399.862 539.346,394.873 540.019,389.391 C540.692,383.91 545.682,380.011 551.163,380.684 z"
      fill="#00A8AA" />
    <path
      d="M451.909,368.497 C457.391,369.171 461.289,374.16 460.616,379.642 C459.943,385.123 454.953,389.021 449.471,388.348 C443.99,387.675 440.092,382.686 440.765,377.204 C441.438,371.723 446.427,367.824 451.909,368.497 z"
      fill="#00A8AA" />
    <path
      d="M298.328,470.541 C303.81,471.214 307.708,476.204 307.035,481.686 C306.362,487.167 301.372,491.065 295.891,490.392 C290.409,489.719 286.511,484.73 287.184,479.248 C287.857,473.766 292.846,469.868 298.328,470.541 z"
      fill="#00A8AA" />
    <path
      d="M340.467,455.565 C345.949,456.238 349.847,461.228 349.174,466.709 C348.501,472.191 343.512,476.089 338.03,475.416 C332.548,474.743 328.65,469.754 329.323,464.272 C329.996,458.79 334.986,454.892 340.467,455.565 z"
      fill="#00A8AA" />
    <path
      d="M371.22,420.076 C376.701,420.749 380.6,425.738 379.926,431.22 C379.253,436.701 374.264,440.6 368.782,439.926 C363.301,439.253 359.402,434.264 360.076,428.782 C360.749,423.301 365.738,419.402 371.22,420.076 z"
      fill="#00A8AA" />
    <path
      d="M407.332,403.325 C412.814,403.998 416.712,408.987 416.039,414.469 C415.366,419.95 410.376,423.849 404.895,423.176 C399.413,422.502 395.515,417.513 396.188,412.031 C396.861,406.55 401.851,402.652 407.332,403.325 z"
      fill="#00A8AA" />
    <path
      d="M402.457,443.026 C407.939,443.699 411.837,448.689 411.164,454.171 C410.491,459.652 405.502,463.55 400.02,462.877 C394.538,462.204 390.64,457.215 391.313,451.733 C391.986,446.252 396.976,442.353 402.457,443.026 z"
      fill="#00A8AA" />
    <path
      d="M357.881,477.854 C363.363,478.527 367.261,483.516 366.588,488.998 C365.915,494.479 360.925,498.378 355.443,497.704 C349.962,497.031 346.064,492.042 346.737,486.56 C347.41,481.079 352.399,477.18 357.881,477.854 z"
      fill="#00A8AA" />
    <path
      d="M211.612,540.076 C217.094,540.749 220.992,545.738 220.319,551.22 C219.646,556.701 214.657,560.6 209.175,559.927 C203.693,559.253 199.795,554.264 200.468,548.782 C201.141,543.301 206.131,539.403 211.612,540.076 z"
      fill="#00A8AA" />
    <path
      d="M246.439,564.921 C251.921,565.594 255.819,570.584 255.146,576.065 C254.473,581.547 249.484,585.445 244.002,584.772 C238.52,584.099 234.622,579.11 235.295,573.628 C235.968,568.146 240.958,564.248 246.439,564.921 z"
      fill="#00A8AA" />
    <path
      d="M273.602,507.806 C279.084,508.479 282.982,513.468 282.309,518.95 C281.636,524.432 276.647,528.33 271.165,527.657 C265.683,526.984 261.785,521.994 262.458,516.513 C263.131,511.031 268.121,507.133 273.602,507.806 z"
      fill="#00A8AA" />
    <path
      d="M313.304,512.681 C318.786,513.354 322.684,518.343 322.011,523.825 C321.338,529.306 316.349,533.205 310.867,532.532 C305.385,531.858 301.487,526.869 302.16,521.387 C302.833,515.906 307.823,512.008 313.304,512.681 z"
      fill="#00A8AA" />
    <path
      d="M308.429,552.382 C313.911,553.055 317.809,558.045 317.136,563.527 C316.463,569.008 311.474,572.906 305.992,572.233 C300.51,571.56 296.612,566.571 297.285,561.089 C297.958,555.608 302.948,551.709 308.429,552.382 z"
      fill="#00A8AA" />
    <text transform="matrix(1, 0, 0, 1, 758.244, 95)">
      <tspan x="-38.244" y="8" font-family="HelveticaNeue-MediumItalic" font-size="24" fill="#F37B00">class 1</tspan>
    </text>
    <text transform="matrix(1, 0, 0, 1, 758.244, 125)">
      <tspan x="-38.244" y="8" font-family="HelveticaNeue-MediumItalic" font-size="24" fill="#00A8AA">class 2</tspan>
    </text>
  </g>
</svg>