<?xml version="1.0" encoding="UTF-8"?>
<!DOCTYPE svg PUBLIC "-//W3C//DTD SVG 1.1//EN" "http://www.w3.org/Graphics/SVG/1.1/DTD/svg11.dtd">
<svg version="1.1" xmlns="http://www.w3.org/2000/svg" xmlns:xlink="http://www.w3.org/1999/xlink" x="0" y="0" width="1024" height="600" viewBox="0, 0, 1024, 600">
  <g id="Layer_1">
    <path d="M67.447,281.5 C69.447,238.5 133.447,222.5 180.447,188.5 C250.42,137.881 281.939,116.525 343.447,113.5 C404.447,110.5 451.544,157.781 512.447,155.5 C573.349,153.219 633.345,110.768 684.447,112.5 C743.447,114.5 787.09,142.064 843.447,191.5 C900.447,241.5 956.474,229.972 957.559,281 C958.559,328 661.447,421.5 514.447,423.5 C372.46,425.432 65.586,321.507 67.447,281.5 z" fill-opacity="0" stroke="#969696" stroke-width="5"/>
    <path d="M150.136,279.688 C150.136,279.688 248.397,225.3 315.397,215.3 C382.397,205.3 467.9,223.3 511.9,222.3 C555.9,221.3 623.397,203.3 699.397,218.3 C775.397,233.3 870.213,279.95 870.213,279.95 C870.213,279.95 768.715,307.751 707.9,320.3 C644.9,333.3 559.9,333.3 514.9,332.3 C469.9,331.3 407.9,331.3 330.9,318.3 C255.482,305.567 150.136,279.688 150.136,279.688 z" fill-opacity="0" stroke="#969696" stroke-width="4"/>
    <g>
      <path d="M67.9,285.167 C65.139,285.167 62.9,282.704 62.9,279.667 C62.9,276.629 65.139,274.167 67.9,274.167 C70.661,274.167 72.9,276.629 72.9,279.667 C72.9,282.704 70.661,285.167 67.9,285.167 z" fill="#FF0000"/>
      <path d="M67.9,285.167 C65.139,285.167 62.9,282.704 62.9,279.667 C62.9,276.629 65.139,274.167 67.9,274.167 C70.661,274.167 72.9,276.629 72.9,279.667 C72.9,282.704 70.661,285.167 67.9,285.167 z" fill-opacity="0" stroke="#FF0000" stroke-width="4"/>
    </g>
    <g>
      <path d="M150,285.167 C147.239,285.167 145,282.704 145,279.667 C145,276.629 147.239,274.167 150,274.167 C152.761,274.167 155,276.629 155,279.667 C155,282.704 152.761,285.167 150,285.167 z" fill="#FF0000"/>
      <path d="M150,285.167 C147.239,285.167 145,282.704 145,279.667 C145,276.629 147.239,274.167 150,274.167 C152.761,274.167 155,276.629 155,279.667 C155,282.704 152.761,285.167 150,285.167 z" fill-opacity="0" stroke="#FF0000" stroke-width="4"/>
    </g>
    <g>
      <path d="M509.9,161 C507.139,161 504.9,158.538 504.9,155.5 C504.9,152.462 507.139,150 509.9,150 C512.661,150 514.9,152.462 514.9,155.5 C514.9,158.538 512.661,161 509.9,161 z" fill="#FF0000"/>
      <path d="M509.9,161 C507.139,161 504.9,158.538 504.9,155.5 C504.9,152.462 507.139,150 509.9,150 C512.661,150 514.9,152.462 514.9,155.5 C514.9,158.538 512.661,161 509.9,161 z" fill-opacity="0" stroke="#FF0000" stroke-width="4"/>
    </g>
    <g>
      <path d="M509.9,228.9 C507.139,228.9 504.9,226.438 504.9,223.4 C504.9,220.362 507.139,217.9 509.9,217.9 C512.661,217.9 514.9,220.362 514.9,223.4 C514.9,226.438 512.661,228.9 509.9,228.9 z" fill="#FF0000"/>
      <path d="M509.9,228.9 C507.139,228.9 504.9,226.438 504.9,223.4 C504.9,220.362 507.139,217.9 509.9,217.9 C512.661,217.9 514.9,220.362 514.9,223.4 C514.9,226.438 512.661,228.9 509.9,228.9 z" fill-opacity="0" stroke="#FF0000" stroke-width="4"/>
    </g>
    <g>
      <path d="M509.9,337.7 C507.139,337.7 504.9,335.238 504.9,332.2 C504.9,329.162 507.139,326.7 509.9,326.7 C512.661,326.7 514.9,329.162 514.9,332.2 C514.9,335.238 512.661,337.7 509.9,337.7 z" fill="#FF0000"/>
      <path d="M509.9,337.7 C507.139,337.7 504.9,335.238 504.9,332.2 C504.9,329.162 507.139,326.7 509.9,326.7 C512.661,326.7 514.9,329.162 514.9,332.2 C514.9,335.238 512.661,337.7 509.9,337.7 z" fill-opacity="0" stroke="#FF0000" stroke-width="4"/>
    </g>
    <g>
      <path d="M509.9,428.9 C507.139,428.9 504.9,426.438 504.9,423.4 C504.9,420.362 507.139,417.9 509.9,417.9 C512.661,417.9 514.9,420.362 514.9,423.4 C514.9,426.438 512.661,428.9 509.9,428.9 z" fill="#FF0000"/>
      <path d="M509.9,428.9 C507.139,428.9 504.9,426.438 504.9,423.4 C504.9,420.362 507.139,417.9 509.9,417.9 C512.661,417.9 514.9,420.362 514.9,423.4 C514.9,426.438 512.661,428.9 509.9,428.9 z" fill-opacity="0" stroke="#FF0000" stroke-width="4"/>
    </g>
    <g>
      <path d="M875.213,285.167 C872.451,285.167 870.213,282.704 870.213,279.667 C870.213,276.629 872.451,274.167 875.213,274.167 C877.974,274.167 880.213,276.629 880.213,279.667 C880.213,282.704 877.974,285.167 875.213,285.167 z" fill="#FF0000"/>
      <path d="M875.213,285.167 C872.451,285.167 870.213,282.704 870.213,279.667 C870.213,276.629 872.451,274.167 875.213,274.167 C877.974,274.167 880.213,276.629 880.213,279.667 C880.213,282.704 877.974,285.167 875.213,285.167 z" fill-opacity="0" stroke="#FF0000" stroke-width="4"/>
    </g>
    <g>
      <path d="M957.1,285.167 C954.339,285.167 952.1,282.704 952.1,279.667 C952.1,276.629 954.339,274.167 957.1,274.167 C959.861,274.167 962.1,276.629 962.1,279.667 C962.1,282.704 959.861,285.167 957.1,285.167 z" fill="#FF0000"/>
      <path d="M957.1,285.167 C954.339,285.167 952.1,282.704 952.1,279.667 C952.1,276.629 954.339,274.167 957.1,274.167 C959.861,274.167 962.1,276.629 962.1,279.667 C962.1,282.704 959.861,285.167 957.1,285.167 z" fill-opacity="0" stroke="#FF0000" stroke-width="4"/>
    </g>
    <g>
      <path d="M294.567,127.5 C291.805,127.5 289.567,125.038 289.567,122 C289.567,118.962 291.805,116.5 294.567,116.5 C297.328,116.5 299.567,118.962 299.567,122 C299.567,125.038 297.328,127.5 294.567,127.5 z" fill="#FF0000"/>
      <path d="M294.567,127.5 C291.805,127.5 289.567,125.038 289.567,122 C289.567,118.962 291.805,116.5 294.567,116.5 C297.328,116.5 299.567,118.962 299.567,122 C299.567,125.038 297.328,127.5 294.567,127.5 z" fill-opacity="0" stroke="#FF0000" stroke-width="4"/>
    </g>
    <g>
      <path d="M726.9,123.448 C724.139,123.448 721.9,120.986 721.9,117.948 C721.9,114.911 724.139,112.448 726.9,112.448 C729.661,112.448 731.9,114.911 731.9,117.948 C731.9,120.986 729.661,123.448 726.9,123.448 z" fill="#FF0000"/>
      <path d="M726.9,123.448 C724.139,123.448 721.9,120.986 721.9,117.948 C721.9,114.911 724.139,112.448 726.9,112.448 C729.661,112.448 731.9,114.911 731.9,117.948 C731.9,120.986 729.661,123.448 726.9,123.448 z" fill-opacity="0" stroke="#FF0000" stroke-width="4"/>
    </g>
    <g>
      <path d="M264.567,381.833 C261.805,381.833 259.567,379.371 259.567,376.333 C259.567,373.296 261.805,370.833 264.567,370.833 C267.328,370.833 269.567,373.296 269.567,376.333 C269.567,379.371 267.328,381.833 264.567,381.833 z" fill="#00FF17"/>
      <path d="M264.567,381.833 C261.805,381.833 259.567,379.371 259.567,376.333 C259.567,373.296 261.805,370.833 264.567,370.833 C267.328,370.833 269.567,373.296 269.567,376.333 C269.567,379.371 267.328,381.833 264.567,381.833 z" fill-opacity="0" stroke="#00FF54" stroke-width="4"/>
    </g>
    <g>
      <path d="M150,343.687 C147.239,343.687 145,341.225 145,338.187 C145,335.15 147.239,332.687 150,332.687 C152.761,332.687 155,335.15 155,338.187 C155,341.225 152.761,343.687 150,343.687 z" fill="#00FF17"/>
      <path d="M150,343.687 C147.239,343.687 145,341.225 145,338.187 C145,335.15 147.239,332.687 150,332.687 C152.761,332.687 155,335.15 155,338.187 C155,341.225 152.761,343.687 150,343.687 z" fill-opacity="0" stroke="#00FF54" stroke-width="4"/>
    </g>
    <g>
      <path d="M402.567,417.9 C399.805,417.9 397.567,415.438 397.567,412.4 C397.567,409.362 399.805,406.9 402.567,406.9 C405.328,406.9 407.567,409.362 407.567,412.4 C407.567,415.438 405.328,417.9 402.567,417.9 z" fill="#00FF17"/>
      <path d="M402.567,417.9 C399.805,417.9 397.567,415.438 397.567,412.4 C397.567,409.362 399.805,406.9 402.567,406.9 C405.328,406.9 407.567,409.362 407.567,412.4 C407.567,415.438 405.328,417.9 402.567,417.9 z" fill-opacity="0" stroke="#00FF54" stroke-width="4"/>
    </g>
    <g>
      <path d="M628.9,417.9 C626.139,417.9 623.9,415.438 623.9,412.4 C623.9,409.362 626.139,406.9 628.9,406.9 C631.661,406.9 633.9,409.362 633.9,412.4 C633.9,415.438 631.661,417.9 628.9,417.9 z" fill="#00FF17"/>
      <path d="M628.9,417.9 C626.139,417.9 623.9,415.438 623.9,412.4 C623.9,409.362 626.139,406.9 628.9,406.9 C631.661,406.9 633.9,409.362 633.9,412.4 C633.9,415.438 631.661,417.9 628.9,417.9 z" fill-opacity="0" stroke="#00FF54" stroke-width="4"/>
    </g>
    <g>
      <path d="M761.567,385.167 C758.805,385.167 756.567,382.704 756.567,379.667 C756.567,376.629 758.805,374.167 761.567,374.167 C764.328,374.167 766.567,376.629 766.567,379.667 C766.567,382.704 764.328,385.167 761.567,385.167 z" fill="#00FF17"/>
      <path d="M761.567,385.167 C758.805,385.167 756.567,382.704 756.567,379.667 C756.567,376.629 758.805,374.167 761.567,374.167 C764.328,374.167 766.567,376.629 766.567,379.667 C766.567,382.704 764.328,385.167 761.567,385.167 z" fill-opacity="0" stroke="#00FF54" stroke-width="4"/>
    </g>
    <g>
      <path d="M870.9,348.7 C868.139,348.7 865.9,346.238 865.9,343.2 C865.9,340.162 868.139,337.7 870.9,337.7 C873.661,337.7 875.9,340.162 875.9,343.2 C875.9,346.238 873.661,348.7 870.9,348.7 z" fill="#00FF17"/>
      <path d="M870.9,348.7 C868.139,348.7 865.9,346.238 865.9,343.2 C865.9,340.162 868.139,337.7 870.9,337.7 C873.661,337.7 875.9,340.162 875.9,343.2 C875.9,346.238 873.661,348.7 870.9,348.7 z" fill-opacity="0" stroke="#00FF54" stroke-width="4"/>
    </g>
    <g>
      <path d="M654.233,332.687 C651.472,332.687 649.233,330.225 649.233,327.187 C649.233,324.15 651.472,321.687 654.233,321.687 C656.995,321.687 659.233,324.15 659.233,327.187 C659.233,330.225 656.995,332.687 654.233,332.687 z" fill="#00FF17"/>
      <path d="M654.233,332.687 C651.472,332.687 649.233,330.225 649.233,327.187 C649.233,324.15 651.472,321.687 654.233,321.687 C656.995,321.687 659.233,324.15 659.233,327.187 C659.233,330.225 656.995,332.687 654.233,332.687 z" fill-opacity="0" stroke="#00FF54" stroke-width="4"/>
    </g>
    <g>
      <path d="M761.567,311.833 C758.805,311.833 756.567,309.371 756.567,306.333 C756.567,303.296 758.805,300.833 761.567,300.833 C764.328,300.833 766.567,303.296 766.567,306.333 C766.567,309.371 764.328,311.833 761.567,311.833 z" fill="#00FF17"/>
      <path d="M761.567,311.833 C758.805,311.833 756.567,309.371 756.567,306.333 C756.567,303.296 758.805,300.833 761.567,300.833 C764.328,300.833 766.567,303.296 766.567,306.333 C766.567,309.371 764.328,311.833 761.567,311.833 z" fill-opacity="0" stroke="#00FF54" stroke-width="4"/>
    </g>
    <g>
      <path d="M757.567,238 C754.805,238 752.567,235.538 752.567,232.5 C752.567,229.462 754.805,227 757.567,227 C760.328,227 762.567,229.462 762.567,232.5 C762.567,235.538 760.328,238 757.567,238 z" fill="#00FF17"/>
      <path d="M757.567,238 C754.805,238 752.567,235.538 752.567,232.5 C752.567,229.462 754.805,227 757.567,227 C760.328,227 762.567,229.462 762.567,232.5 C762.567,235.538 760.328,238 757.567,238 z" fill-opacity="0" stroke="#00FF54" stroke-width="4"/>
    </g>
    <g>
      <path d="M646.9,217.9 C644.139,217.9 641.9,215.438 641.9,212.4 C641.9,209.362 644.139,206.9 646.9,206.9 C649.661,206.9 651.9,209.362 651.9,212.4 C651.9,215.438 649.661,217.9 646.9,217.9 z" fill="#00FF17"/>
      <path d="M646.9,217.9 C644.139,217.9 641.9,215.438 641.9,212.4 C641.9,209.362 644.139,206.9 646.9,206.9 C649.661,206.9 651.9,209.362 651.9,212.4 C651.9,215.438 649.661,217.9 646.9,217.9 z" fill-opacity="0" stroke="#00FF54" stroke-width="4"/>
    </g>
    <g>
      <path d="M406.9,332.687 C404.139,332.687 401.9,330.225 401.9,327.187 C401.9,324.15 404.139,321.687 406.9,321.687 C409.661,321.687 411.9,324.15 411.9,327.187 C411.9,330.225 409.661,332.687 406.9,332.687 z" fill="#00FF17"/>
      <path d="M406.9,332.687 C404.139,332.687 401.9,330.225 401.9,327.187 C401.9,324.15 404.139,321.687 406.9,321.687 C409.661,321.687 411.9,324.15 411.9,327.187 C411.9,330.225 409.661,332.687 406.9,332.687 z" fill-opacity="0" stroke="#00FF54" stroke-width="4"/>
    </g>
    <g>
      <path d="M294.567,315.833 C291.805,315.833 289.567,313.371 289.567,310.333 C289.567,307.296 291.805,304.833 294.567,304.833 C297.328,304.833 299.567,307.296 299.567,310.333 C299.567,313.371 297.328,315.833 294.567,315.833 z" fill="#00FF17"/>
      <path d="M294.567,315.833 C291.805,315.833 289.567,313.371 289.567,310.333 C289.567,307.296 291.805,304.833 294.567,304.833 C297.328,304.833 299.567,307.296 299.567,310.333 C299.567,313.371 297.328,315.833 294.567,315.833 z" fill-opacity="0" stroke="#00FF54" stroke-width="4"/>
    </g>
    <g>
      <path d="M294.567,227 C291.805,227 289.567,224.538 289.567,221.5 C289.567,218.462 291.805,216 294.567,216 C297.328,216 299.567,218.462 299.567,221.5 C299.567,224.538 297.328,227 294.567,227 z" fill="#00FF17"/>
      <path d="M294.567,227 C291.805,227 289.567,224.538 289.567,221.5 C289.567,218.462 291.805,216 294.567,216 C297.328,216 299.567,218.462 299.567,221.5 C299.567,224.538 297.328,227 294.567,227 z" fill-opacity="0" stroke="#00FF54" stroke-width="4"/>
    </g>
    <g>
      <path d="M402.567,217.9 C399.805,217.9 397.567,215.438 397.567,212.4 C397.567,209.362 399.805,206.9 402.567,206.9 C405.328,206.9 407.567,209.362 407.567,212.4 C407.567,215.438 405.328,217.9 402.567,217.9 z" fill="#00FF17"/>
      <path d="M402.567,217.9 C399.805,217.9 397.567,215.438 397.567,212.4 C397.567,209.362 399.805,206.9 402.567,206.9 C405.328,206.9 407.567,209.362 407.567,212.4 C407.567,215.438 405.328,217.9 402.567,217.9 z" fill-opacity="0" stroke="#00FF54" stroke-width="4"/>
    </g>
    <g>
      <path d="M406.9,131.167 C404.139,131.167 401.9,128.704 401.9,125.667 C401.9,122.629 404.139,120.167 406.9,120.167 C409.661,120.167 411.9,122.629 411.9,125.667 C411.9,128.704 409.661,131.167 406.9,131.167 z" fill="#00FF17"/>
      <path d="M406.9,131.167 C404.139,131.167 401.9,128.704 401.9,125.667 C401.9,122.629 404.139,120.167 406.9,120.167 C409.661,120.167 411.9,122.629 411.9,125.667 C411.9,128.704 409.661,131.167 406.9,131.167 z" fill-opacity="0" stroke="#00FF54" stroke-width="4"/>
    </g>
    <g>
      <path d="M622.233,131.167 C619.472,131.167 617.233,128.704 617.233,125.667 C617.233,122.629 619.472,120.167 622.233,120.167 C624.995,120.167 627.233,122.629 627.233,125.667 C627.233,128.704 624.995,131.167 622.233,131.167 z" fill="#00FF17"/>
      <path d="M622.233,131.167 C619.472,131.167 617.233,128.704 617.233,125.667 C617.233,122.629 619.472,120.167 622.233,120.167 C624.995,120.167 627.233,122.629 627.233,125.667 C627.233,128.704 624.995,131.167 622.233,131.167 z" fill-opacity="0" stroke="#00FF54" stroke-width="4"/>
    </g>
    <g>
      <path d="M828.9,181.167 C826.139,181.167 823.9,178.704 823.9,175.667 C823.9,172.629 826.139,170.167 828.9,170.167 C831.661,170.167 833.9,172.629 833.9,175.667 C833.9,178.704 831.661,181.167 828.9,181.167 z" fill="#00FF17"/>
      <path d="M828.9,181.167 C826.139,181.167 823.9,178.704 823.9,175.667 C823.9,172.629 826.139,170.167 828.9,170.167 C831.661,170.167 833.9,172.629 833.9,175.667 C833.9,178.704 831.661,181.167 828.9,181.167 z" fill-opacity="0" stroke="#00FF54" stroke-width="4"/>
    </g>
    <g>
      <path d="M201.567,181.167 C198.805,181.167 196.567,178.704 196.567,175.667 C196.567,172.629 198.805,170.167 201.567,170.167 C204.328,170.167 206.567,172.629 206.567,175.667 C206.567,178.704 204.328,181.167 201.567,181.167 z" fill="#00FF17"/>
      <path d="M201.567,181.167 C198.805,181.167 196.567,178.704 196.567,175.667 C196.567,172.629 198.805,170.167 201.567,170.167 C204.328,170.167 206.567,172.629 206.567,175.667 C206.567,178.704 204.328,181.167 201.567,181.167 z" fill-opacity="0" stroke="#00FF54" stroke-width="4"/>
    </g>
    <g>
      <g>
        <path d="M83,431.833 C80.239,431.833 78,429.371 78,426.333 C78,423.296 80.239,420.833 83,420.833 C85.761,420.833 88,423.296 88,426.333 C88,429.371 85.761,431.833 83,431.833 z" fill="#FF0000"/>
        <path d="M83,431.833 C80.239,431.833 78,429.371 78,426.333 C78,423.296 80.239,420.833 83,420.833 C85.761,420.833 88,423.296 88,426.333 C88,429.371 85.761,431.833 83,431.833 z" fill-opacity="0" stroke="#FF0000" stroke-width="4"/>
      </g>
      <text transform="matrix(1, 0, 0, 1, 206.602, 425.833)">
        <tspan x="-107.28" y="8" font-family="HelveticaNeue-Bold" font-size="24" fill="#7D7D7D">primary landmarks</tspan>
      </text>
    </g>
    <g>
      <g>
        <path d="M83,467.5 C80.239,467.5 78,465.038 78,462 C78,458.962 80.239,456.5 83,456.5 C85.761,456.5 88,458.962 88,462 C88,465.038 85.761,467.5 83,467.5 z" fill="#00FF17"/>
        <path d="M83,467.5 C80.239,467.5 78,465.038 78,462 C78,458.962 80.239,456.5 83,456.5 C85.761,456.5 88,458.962 88,462 C88,465.038 85.761,467.5 83,467.5 z" fill-opacity="0" stroke="#00FF54" stroke-width="4"/>
      </g>
      <text transform="matrix(1, 0, 0, 1, 222.634, 461.5)">
        <tspan x="-123.312" y="8" font-family="HelveticaNeue-Bold" font-size="24" fill="#7D7D7D">secondary landmarks</tspan>
      </text>
    </g>
  </g>
</svg>
