<?xml version="1.0" encoding="UTF-8"?>
<!DOCTYPE svg PUBLIC "-//W3C//DTD SVG 1.1//EN" "http://www.w3.org/Graphics/SVG/1.1/DTD/svg11.dtd">
<svg version="1.1" xmlns="http://www.w3.org/2000/svg" xmlns:xlink="http://www.w3.org/1999/xlink" x="0" y="0" width="400" height="300" viewBox="0, 0, 400, 300">
  <g id="Layer1">
    <path d="M20.5,20.5 L380.5,20.5 L380.5,280.5 L20.5,280.5 L20.5,20.5 z" fill-opacity="0" stroke="#959595" stroke-width="3"/>
    <g>
      <path d="M20.5,20.5 L139.5,20.5" fill-opacity="0" stroke="#00C470" stroke-width="6"/>
      <path d="M139.5,26.5 L155.5,20.5 L139.5,14.5 z" fill="#00C470" fill-opacity="1" stroke="#00C470" stroke-width="6" stroke-opacity="1"/>
    </g>
    <g>
      <path d="M20.5,20.5 L20.5,139.5" fill-opacity="0" stroke="#00C470" stroke-width="6"/>
      <path d="M14.5,139.5 L20.5,155.5 L26.5,139.5 z" fill="#00C470" fill-opacity="1" stroke="#00C470" stroke-width="6" stroke-opacity="1"/>
    </g>
    <g>
      <path d="M200.5,160.5 L279.5,160.5" fill-opacity="0" stroke="#EE0000" stroke-width="6"/>
      <path d="M279.5,166.5 L295.5,160.5 L279.5,154.5 z" fill="#EE0000" fill-opacity="1" stroke="#EE0000" stroke-width="6" stroke-opacity="1"/>
    </g>
    <g>
      <path d="M200.5,160.5 L200.5,239.5" fill-opacity="0" stroke="#EE0000" stroke-width="6"/>
      <path d="M194.5,239.5 L200.5,255.5 L206.5,239.5 z" fill="#EE0000" fill-opacity="1" stroke="#EE0000" stroke-width="6" stroke-opacity="1"/>
    </g>
    <text transform="matrix(1, 0, 0, 1, 208.012, 109.5)">
      <tspan x="-48.012" y="-6.5" font-family="HelveticaNeue-MediumItalic" font-size="24" fill="#7D7D7D">principal</tspan>
      <tspan x="-28.224" y="22.5" font-family="HelveticaNeue-MediumItalic" font-size="24" fill="#7D7D7D">point</tspan>
    </text>
    <path d="M200,167.25 C195.996,167.25 192.75,164.004 192.75,160 C192.75,155.996 195.996,152.75 200,152.75 C204.004,152.75 207.25,155.996 207.25,160 C207.25,164.004 204.004,167.25 200,167.25 z" fill="#EE0000"/>
    <text transform="matrix(1, 0, 0, 1, 170, 250)">
      <tspan x="-9" y="5" font-family="HelveticaNeue-MediumItalic" font-size="36" fill="#EE0000">x</tspan>
    </text>
    <text transform="matrix(1, 0, 0, 1, 290, 130)">
      <tspan x="-9" y="5" font-family="HelveticaNeue-MediumItalic" font-size="36" fill="#EE0000">y</tspan>
    </text>
    <text transform="matrix(1, 0, 0, 1, 70, 130)">
      <tspan x="-9" y="5" font-family="HelveticaNeue-MediumItalic" font-size="36" fill="#00C470">x</tspan>
    </text>
    <text transform="matrix(1, 0, 0, 1, 130, 50)">
      <tspan x="-9" y="5" font-family="HelveticaNeue-MediumItalic" font-size="36" fill="#00C470">y</tspan>
    </text>
  </g>
</svg>
