<?xml version="1.0" encoding="UTF-8"?>
<!DOCTYPE svg PUBLIC "-//W3C//DTD SVG 1.1//EN" "http://www.w3.org/Graphics/SVG/1.1/DTD/svg11.dtd">
<svg version="1.1" xmlns="http://www.w3.org/2000/svg" xmlns:xlink="http://www.w3.org/1999/xlink" x="0" y="0" width="1000" height="700" viewBox="0, 0, 1000, 700">
  <g id="axis">
    <g>
      <path d="M140.5,560.5 L140.5,96.9" fill-opacity="0" stroke="#A6A6A6" stroke-width="4"/>
      <path d="M145.3,96.9 L140.5,84.1 L135.7,96.9 z" fill="#A6A6A6" fill-opacity="1" stroke="#A6A6A6" stroke-width="4" stroke-opacity="1"/>
    </g>
    <g>
      <path d="M140.5,560.5 L884.1,560.5" fill-opacity="0" stroke="#A6A6A6" stroke-width="4"/>
      <path d="M884.1,565.3 L896.9,560.5 L884.1,555.7 z" fill="#A6A6A6" fill-opacity="1" stroke="#A6A6A6" stroke-width="4" stroke-opacity="1"/>
    </g>
    <g>
      <path d="M84.238,138.721 L85.465,138.721 C85.465,142.284 84.881,144.912 83.654,146.547 C82.545,148.182 81.085,149 79.274,149 C77.872,149 76.471,148.474 75.186,147.423 C73.843,146.314 72.675,143.393 71.623,138.721 L68.645,125.405 L58.483,148.533 L52,148.533 L66.659,116.995 C65.841,112.907 64.907,109.87 63.856,107.943 C62.746,105.957 61.403,104.964 59.768,104.964 C58.483,104.964 57.315,105.49 56.322,106.483 C55.387,107.476 54.862,108.994 54.745,111.097 L53.518,111.097 C53.577,107.709 54.219,105.023 55.504,103.037 C56.789,100.993 58.366,100 60.293,100 C61.52,100 62.688,100.526 63.797,101.518 C64.907,102.511 65.9,104.263 66.659,106.716 C67.477,109.169 68.762,114.25 70.455,121.959 L72.908,132.822 C73.901,137.319 74.894,140.298 76.004,141.816 C77.055,143.335 78.398,144.094 79.858,144.094 C82.428,144.094 83.888,142.284 84.238,138.721" fill="#A6A6A6" id="lambda"/>
      <path d="M103.524,149 L86.028,149 Q86.532,145.832 88.314,143.492 Q90.096,141.152 92.796,139.532 Q94.2,138.668 95.694,137.75 Q97.188,136.832 98.736,135.896 Q100.284,134.96 101.274,133.664 Q102.264,132.368 102.264,130.244 Q102.264,129.38 101.922,128.714 Q101.58,128.048 101.022,127.598 Q100.464,127.148 99.708,126.932 Q98.952,126.716 98.16,126.716 Q96.972,126.716 96.036,127.166 Q95.1,127.616 94.434,128.39 Q93.768,129.164 93.39,130.226 Q93.012,131.288 92.94,132.512 L89.052,132.512 Q89.232,130.46 89.916,128.75 Q90.6,127.04 91.788,125.834 Q92.976,124.628 94.668,123.962 Q96.36,123.296 98.52,123.296 Q100.176,123.296 101.598,123.728 Q103.02,124.16 104.082,125.024 Q105.144,125.888 105.756,127.22 Q106.368,128.552 106.368,130.316 Q106.368,132.404 105.558,133.952 Q104.748,135.5 103.434,136.706 Q102.12,137.912 100.482,138.902 Q98.844,139.892 97.206,140.864 Q95.568,141.836 94.056,142.898 Q92.544,143.96 91.536,145.328 L104.316,145.328 z" fill="#A6A6A6" id="two"/>
    </g>
    <g>
      <path d="M832.238,618.721 L833.465,618.721 C833.465,622.284 832.881,624.912 831.654,626.547 C830.545,628.182 829.085,629 827.274,629 C825.872,629 824.471,628.474 823.186,627.423 C821.843,626.313 820.675,623.393 819.623,618.721 L816.645,605.405 L806.483,628.533 L800,628.533 L814.659,596.995 C813.841,592.907 812.907,589.87 811.856,587.943 C810.746,585.957 809.403,584.964 807.768,584.964 C806.483,584.964 805.315,585.49 804.322,586.483 C803.387,587.476 802.862,588.994 802.745,591.097 L801.518,591.097 C801.577,587.709 802.219,585.023 803.504,583.037 C804.789,580.993 806.366,580 808.293,580 C809.52,580 810.688,580.526 811.797,581.518 C812.907,582.511 813.9,584.263 814.659,586.716 C815.477,589.169 816.762,594.25 818.455,601.959 L820.908,612.822 C821.901,617.319 822.894,620.298 824.004,621.816 C825.055,623.335 826.398,624.094 827.858,624.094 C830.428,624.094 831.888,622.284 832.238,618.721" fill="#A6A6A6" id="lambda"/>
      <path d="M838.752,607.976 Q841.308,607.976 843.54,606.986 Q845.772,605.996 847.032,603.8 L850.308,603.8 L845.016,629 L840.66,629 L844.476,610.604 Q842.856,610.964 841.29,611.09 Q839.724,611.216 838.068,611.216 z" fill="#A6A6A6" id="one"/>
    </g>
  </g>
  <g id="plot">
    <path d="M64.511,409.296 L85.679,409.296 L84.851,413.184 L76.679,413.184 L72.143,435 L67.643,435 L72.179,413.184 L63.719,413.184 z" fill="#F42300"/>
    <path d="M242.844,591.796 L264.012,591.796 L263.184,595.684 L255.012,595.684 L250.476,617.5 L245.976,617.5 L250.512,595.684 L242.052,595.684 z" fill="#F42300"/>
    <path d="M140.5,440.5 L800.5,440.5" fill-opacity="0" stroke="#F42300" stroke-width="3"/>
    <path d="M261.848,560.5 L261.848,120.5" fill-opacity="0" stroke="#F42300" stroke-width="3"/>
    <path d="M180.315,295.704 Q180.339,295.584 180.339,295.5 Q180.339,295.416 180.339,295.32 L180.339,294.936 Q180.339,293.832 179.643,293.124 Q178.947,292.416 177.723,292.416 Q176.187,292.416 175.275,293.34 Q174.363,294.264 173.955,295.704 z M182.307,299.16 Q181.659,301.344 180.123,302.34 Q178.587,303.336 176.331,303.336 Q175.155,303.336 174.159,302.964 Q173.163,302.592 172.443,301.884 Q171.723,301.176 171.315,300.18 Q170.907,299.184 170.907,297.912 Q170.907,296.472 171.363,295.104 Q171.819,293.736 172.695,292.656 Q173.571,291.576 174.855,290.916 Q176.139,290.256 177.795,290.256 Q179.451,290.256 180.483,290.808 Q181.515,291.36 182.091,292.2 Q182.667,293.04 182.871,294.048 Q183.075,295.056 183.075,295.968 Q183.075,296.424 183.027,296.808 Q182.979,297.192 182.931,297.504 L173.691,297.504 Q173.667,297.624 173.655,297.72 Q173.643,297.816 173.643,297.912 L173.643,298.296 Q173.643,299.592 174.327,300.384 Q175.011,301.176 176.595,301.176 Q177.699,301.176 178.491,300.672 Q179.283,300.168 179.571,299.16 z" fill="#F42300"/>
    <path d="M195.243,303 L192.627,303 L193.011,301.32 L192.963,301.272 Q192.147,302.472 191.163,302.904 Q190.179,303.336 189.075,303.336 Q188.547,303.336 187.731,303.192 Q186.915,303.048 186.135,302.532 Q185.355,302.016 184.803,301.008 Q184.251,300 184.251,298.248 Q184.251,296.736 184.707,295.308 Q185.163,293.88 186.027,292.752 Q186.891,291.624 188.139,290.94 Q189.387,290.256 190.995,290.256 Q192.243,290.256 193.251,290.712 Q194.259,291.168 194.739,292.296 L194.787,292.296 L196.155,285.864 L198.891,285.864 z M194.067,295.392 Q194.067,294.792 193.911,294.24 Q193.755,293.688 193.431,293.292 Q193.107,292.896 192.579,292.656 Q192.051,292.416 191.331,292.416 Q190.179,292.416 189.363,292.932 Q188.547,293.448 188.019,294.288 Q187.491,295.128 187.239,296.172 Q186.987,297.216 186.987,298.248 Q186.987,299.64 187.683,300.408 Q188.379,301.176 189.819,301.176 Q190.875,301.176 191.667,300.624 Q192.459,300.072 192.999,299.22 Q193.539,298.368 193.803,297.348 Q194.067,296.328 194.067,295.392 z" fill="#F42300"/>
    <path d="M201.867,297.768 Q201.867,298.392 202.011,298.956 Q202.155,299.52 202.467,299.94 Q202.779,300.36 203.271,300.6 Q203.763,300.84 204.459,300.84 Q205.563,300.84 206.343,300.336 Q207.123,299.832 207.627,299.04 Q208.131,298.248 208.359,297.264 Q208.587,296.28 208.587,295.344 Q208.587,293.976 207.891,293.196 Q207.195,292.416 205.827,292.416 Q204.819,292.416 204.075,292.932 Q203.331,293.448 202.839,294.24 Q202.347,295.032 202.107,295.98 Q201.867,296.928 201.867,297.768 z M209.763,302.664 Q209.451,304.08 208.983,305.088 Q208.515,306.096 207.783,306.72 Q207.051,307.344 206.007,307.632 Q204.963,307.92 203.499,307.92 Q202.443,307.92 201.495,307.704 Q200.547,307.488 199.815,307.02 Q199.083,306.552 198.639,305.796 Q198.195,305.04 198.171,303.96 L200.907,303.96 Q200.955,305.016 201.759,305.448 Q202.563,305.88 203.739,305.88 Q204.651,305.88 205.251,305.616 Q205.851,305.352 206.247,304.896 Q206.643,304.44 206.859,303.804 Q207.075,303.168 207.243,302.4 L207.507,301.176 L207.459,301.128 Q206.163,303 203.955,303 Q201.627,303 200.379,301.644 Q199.131,300.288 199.131,297.912 Q199.131,296.52 199.551,295.14 Q199.971,293.76 200.775,292.68 Q201.579,291.6 202.779,290.928 Q203.979,290.256 205.539,290.256 Q206.907,290.256 207.891,290.808 Q208.875,291.36 209.379,292.656 L209.427,292.656 L209.787,290.592 L212.379,290.592 z" fill="#F42300"/>
    <path d="M222.555,295.704 Q222.579,295.584 222.579,295.5 Q222.579,295.416 222.579,295.32 L222.579,294.936 Q222.579,293.832 221.883,293.124 Q221.187,292.416 219.963,292.416 Q218.427,292.416 217.515,293.34 Q216.603,294.264 216.195,295.704 z M224.547,299.16 Q223.899,301.344 222.363,302.34 Q220.827,303.336 218.571,303.336 Q217.395,303.336 216.399,302.964 Q215.403,302.592 214.683,301.884 Q213.963,301.176 213.555,300.18 Q213.147,299.184 213.147,297.912 Q213.147,296.472 213.603,295.104 Q214.059,293.736 214.935,292.656 Q215.811,291.576 217.095,290.916 Q218.379,290.256 220.035,290.256 Q221.691,290.256 222.723,290.808 Q223.755,291.36 224.331,292.2 Q224.907,293.04 225.111,294.048 Q225.315,295.056 225.315,295.968 Q225.315,296.424 225.267,296.808 Q225.219,297.192 225.171,297.504 L215.931,297.504 Q215.907,297.624 215.895,297.72 Q215.883,297.816 215.883,297.912 L215.883,298.296 Q215.883,299.592 216.567,300.384 Q217.251,301.176 218.835,301.176 Q219.939,301.176 220.731,300.672 Q221.523,300.168 221.811,299.16 z" fill="#F42300"/>
    <path d="M489.648,495.704 Q489.672,495.584 489.672,495.5 Q489.672,495.416 489.672,495.32 L489.672,494.936 Q489.672,493.832 488.976,493.124 Q488.28,492.416 487.056,492.416 Q485.52,492.416 484.608,493.34 Q483.696,494.264 483.288,495.704 z M491.64,499.16 Q490.992,501.344 489.456,502.34 Q487.92,503.336 485.664,503.336 Q484.488,503.336 483.492,502.964 Q482.496,502.592 481.776,501.884 Q481.056,501.176 480.648,500.18 Q480.24,499.184 480.24,497.912 Q480.24,496.472 480.696,495.104 Q481.152,493.736 482.028,492.656 Q482.904,491.576 484.188,490.916 Q485.472,490.256 487.128,490.256 Q488.784,490.256 489.816,490.808 Q490.848,491.36 491.424,492.2 Q492,493.04 492.204,494.048 Q492.408,495.056 492.408,495.968 Q492.408,496.424 492.36,496.808 Q492.312,497.192 492.264,497.504 L483.024,497.504 Q483,497.624 482.988,497.72 Q482.976,497.816 482.976,497.912 L482.976,498.296 Q482.976,499.592 483.66,500.384 Q484.344,501.176 485.928,501.176 Q487.032,501.176 487.824,500.672 Q488.616,500.168 488.904,499.16 z" fill="#F42300"/>
    <path d="M504.576,503 L501.96,503 L502.344,501.32 L502.296,501.272 Q501.48,502.472 500.496,502.904 Q499.512,503.336 498.408,503.336 Q497.88,503.336 497.064,503.192 Q496.248,503.048 495.468,502.532 Q494.688,502.016 494.136,501.008 Q493.584,500 493.584,498.248 Q493.584,496.736 494.04,495.308 Q494.496,493.88 495.36,492.752 Q496.224,491.624 497.472,490.94 Q498.72,490.256 500.328,490.256 Q501.576,490.256 502.584,490.712 Q503.592,491.168 504.072,492.296 L504.12,492.296 L505.488,485.864 L508.224,485.864 z M503.4,495.392 Q503.4,494.792 503.244,494.24 Q503.088,493.688 502.764,493.292 Q502.44,492.896 501.912,492.656 Q501.384,492.416 500.664,492.416 Q499.512,492.416 498.696,492.932 Q497.88,493.448 497.352,494.288 Q496.824,495.128 496.572,496.172 Q496.32,497.216 496.32,498.248 Q496.32,499.64 497.016,500.408 Q497.712,501.176 499.152,501.176 Q500.208,501.176 501,500.624 Q501.792,500.072 502.332,499.22 Q502.872,498.368 503.136,497.348 Q503.4,496.328 503.4,495.392 z" fill="#F42300"/>
    <path d="M511.2,497.768 Q511.2,498.392 511.344,498.956 Q511.488,499.52 511.8,499.94 Q512.112,500.36 512.604,500.6 Q513.096,500.84 513.792,500.84 Q514.896,500.84 515.676,500.336 Q516.456,499.832 516.96,499.04 Q517.464,498.248 517.692,497.264 Q517.92,496.28 517.92,495.344 Q517.92,493.976 517.224,493.196 Q516.528,492.416 515.16,492.416 Q514.152,492.416 513.408,492.932 Q512.664,493.448 512.172,494.24 Q511.68,495.032 511.44,495.98 Q511.2,496.928 511.2,497.768 z M519.096,502.664 Q518.784,504.08 518.316,505.088 Q517.848,506.096 517.116,506.72 Q516.384,507.344 515.34,507.632 Q514.296,507.92 512.832,507.92 Q511.776,507.92 510.828,507.704 Q509.88,507.488 509.148,507.02 Q508.416,506.552 507.972,505.796 Q507.528,505.04 507.504,503.96 L510.24,503.96 Q510.288,505.016 511.092,505.448 Q511.896,505.88 513.072,505.88 Q513.984,505.88 514.584,505.616 Q515.184,505.352 515.58,504.896 Q515.976,504.44 516.192,503.804 Q516.408,503.168 516.576,502.4 L516.84,501.176 L516.792,501.128 Q515.496,503 513.288,503 Q510.96,503 509.712,501.644 Q508.464,500.288 508.464,497.912 Q508.464,496.52 508.884,495.14 Q509.304,493.76 510.108,492.68 Q510.912,491.6 512.112,490.928 Q513.312,490.256 514.872,490.256 Q516.24,490.256 517.224,490.808 Q518.208,491.36 518.712,492.656 L518.76,492.656 L519.12,490.592 L521.712,490.592 z" fill="#F42300"/>
    <path d="M531.888,495.704 Q531.912,495.584 531.912,495.5 Q531.912,495.416 531.912,495.32 L531.912,494.936 Q531.912,493.832 531.216,493.124 Q530.52,492.416 529.296,492.416 Q527.76,492.416 526.848,493.34 Q525.936,494.264 525.528,495.704 z M533.88,499.16 Q533.232,501.344 531.696,502.34 Q530.16,503.336 527.904,503.336 Q526.728,503.336 525.732,502.964 Q524.736,502.592 524.016,501.884 Q523.296,501.176 522.888,500.18 Q522.48,499.184 522.48,497.912 Q522.48,496.472 522.936,495.104 Q523.392,493.736 524.268,492.656 Q525.144,491.576 526.428,490.916 Q527.712,490.256 529.368,490.256 Q531.024,490.256 532.056,490.808 Q533.088,491.36 533.664,492.2 Q534.24,493.04 534.444,494.048 Q534.648,495.056 534.648,495.968 Q534.648,496.424 534.6,496.808 Q534.552,497.192 534.504,497.504 L525.264,497.504 Q525.24,497.624 525.228,497.72 Q525.216,497.816 525.216,497.912 L525.216,498.296 Q525.216,499.592 525.9,500.384 Q526.584,501.176 528.168,501.176 Q529.272,501.176 530.064,500.672 Q530.856,500.168 531.144,499.16 z" fill="#F42300"/>
    <path d="M483.324,294.696 Q483.372,293.544 482.7,292.98 Q482.028,292.416 480.876,292.416 Q479.844,292.416 479.076,292.944 Q478.308,293.472 477.804,294.288 Q477.3,295.104 477.048,296.076 Q476.796,297.048 476.796,297.936 Q476.796,298.632 476.94,299.22 Q477.084,299.808 477.408,300.24 Q477.732,300.672 478.26,300.924 Q478.788,301.176 479.556,301.176 Q480.78,301.176 481.56,300.528 Q482.34,299.88 482.676,298.728 L485.412,298.728 Q484.74,301.128 483.156,302.232 Q481.572,303.336 479.1,303.336 Q477.876,303.336 476.94,302.952 Q476.004,302.568 475.368,301.86 Q474.732,301.152 474.396,300.18 Q474.06,299.208 474.06,298.032 Q474.06,296.472 474.54,295.056 Q475.02,293.64 475.932,292.572 Q476.844,291.504 478.152,290.88 Q479.46,290.256 481.116,290.256 Q482.148,290.256 483.06,290.544 Q483.972,290.832 484.644,291.384 Q485.316,291.936 485.7,292.776 Q486.084,293.616 486.06,294.696 z" fill="#F42300"/>
    <path d="M494.316,292.416 Q493.26,292.416 492.48,292.944 Q491.7,293.472 491.172,294.276 Q490.644,295.08 490.392,296.064 Q490.14,297.048 490.14,297.984 Q490.14,299.352 490.824,300.264 Q491.508,301.176 492.996,301.176 Q494.052,301.176 494.832,300.66 Q495.612,300.144 496.14,299.34 Q496.668,298.536 496.92,297.54 Q497.172,296.544 497.172,295.608 Q497.172,294.24 496.488,293.328 Q495.804,292.416 494.316,292.416 z M492.828,303.336 Q490.236,303.336 488.82,301.932 Q487.404,300.528 487.404,297.912 Q487.404,296.376 487.908,294.996 Q488.412,293.616 489.336,292.56 Q490.26,291.504 491.568,290.88 Q492.876,290.256 494.484,290.256 Q497.076,290.256 498.492,291.612 Q499.908,292.968 499.908,295.584 Q499.908,297.216 499.428,298.632 Q498.948,300.048 498.024,301.092 Q497.1,302.136 495.792,302.736 Q494.484,303.336 492.828,303.336 z" fill="#F42300"/>
    <path d="M503.628,290.592 L506.22,290.592 L505.716,293.016 L505.764,293.064 Q506.052,292.56 506.472,292.056 Q506.892,291.552 507.396,291.156 Q507.9,290.76 508.488,290.508 Q509.076,290.256 509.724,290.256 Q510.06,290.256 510.384,290.268 Q510.708,290.28 511.044,290.328 L510.468,292.944 Q510.228,292.896 509.988,292.872 Q509.748,292.848 509.508,292.848 Q508.452,292.848 507.672,293.22 Q506.892,293.592 506.352,294.24 Q505.812,294.888 505.476,295.728 Q505.14,296.568 504.948,297.504 L503.796,303 L501.06,303 z" fill="#F42300"/>
    <path d="M512.508,290.592 L515.076,290.592 L514.692,292.392 L514.74,292.44 Q515.484,291.408 516.6,290.832 Q517.716,290.256 519.012,290.256 Q520.884,290.256 521.76,291.144 Q522.636,292.032 522.636,293.544 Q522.636,293.88 522.612,294.312 Q522.588,294.744 522.516,295.08 L520.86,303 L518.124,303 L519.708,295.344 Q519.78,295.032 519.84,294.744 Q519.9,294.456 519.9,294.192 Q519.9,294.048 519.888,293.748 Q519.876,293.448 519.708,293.148 Q519.54,292.848 519.144,292.632 Q518.748,292.416 518.004,292.416 Q517.188,292.416 516.552,292.764 Q515.916,293.112 515.412,293.616 Q514.932,294.096 514.584,294.804 Q514.236,295.512 514.068,296.28 L512.676,303 L509.94,303 z" fill="#F42300"/>
    <path d="M533.652,295.704 Q533.676,295.584 533.676,295.5 Q533.676,295.416 533.676,295.32 L533.676,294.936 Q533.676,293.832 532.98,293.124 Q532.284,292.416 531.06,292.416 Q529.524,292.416 528.612,293.34 Q527.7,294.264 527.292,295.704 z M535.644,299.16 Q534.996,301.344 533.46,302.34 Q531.924,303.336 529.668,303.336 Q528.492,303.336 527.496,302.964 Q526.5,302.592 525.78,301.884 Q525.06,301.176 524.652,300.18 Q524.244,299.184 524.244,297.912 Q524.244,296.472 524.7,295.104 Q525.156,293.736 526.032,292.656 Q526.908,291.576 528.192,290.916 Q529.476,290.256 531.132,290.256 Q532.788,290.256 533.82,290.808 Q534.852,291.36 535.428,292.2 Q536.004,293.04 536.208,294.048 Q536.412,295.056 536.412,295.968 Q536.412,296.424 536.364,296.808 Q536.316,297.192 536.268,297.504 L527.028,297.504 Q527.004,297.624 526.992,297.72 Q526.98,297.816 526.98,297.912 L526.98,298.296 Q526.98,299.592 527.664,300.384 Q528.348,301.176 529.932,301.176 Q531.036,301.176 531.828,300.672 Q532.62,300.168 532.908,299.16 z" fill="#F42300"/>
    <path d="M539.628,290.592 L542.22,290.592 L541.716,293.016 L541.764,293.064 Q542.052,292.56 542.472,292.056 Q542.892,291.552 543.396,291.156 Q543.9,290.76 544.488,290.508 Q545.076,290.256 545.724,290.256 Q546.06,290.256 546.384,290.268 Q546.708,290.28 547.044,290.328 L546.468,292.944 Q546.228,292.896 545.988,292.872 Q545.748,292.848 545.508,292.848 Q544.452,292.848 543.672,293.22 Q542.892,293.592 542.352,294.24 Q541.812,294.888 541.476,295.728 Q541.14,296.568 540.948,297.504 L539.796,303 L537.06,303 z" fill="#F42300"/>
    <path d="M183.759,492.632 L181.719,492.632 L182.127,490.592 L184.167,490.592 Q184.383,489.512 184.623,488.648 Q184.863,487.784 185.319,487.16 Q185.775,486.536 186.543,486.2 Q187.311,485.864 188.559,485.864 Q189.111,485.864 189.615,485.924 Q190.119,485.984 190.599,486.032 L190.143,488.12 Q189.735,488.024 189.087,488.024 Q188.391,488.024 188.019,488.216 Q187.647,488.408 187.443,488.756 Q187.239,489.104 187.143,489.572 Q187.047,490.04 186.903,490.592 L189.303,490.592 L188.895,492.632 L186.495,492.632 L184.335,503 L181.599,503 z" fill="#F42300"/>
    <path d="M191.943,485.864 L194.679,485.864 L191.127,503 L188.391,503 z" fill="#F42300"/>
    <path d="M196.983,499.592 Q196.983,500.048 197.187,500.348 Q197.391,500.648 197.703,500.828 Q198.015,501.008 198.399,501.092 Q198.783,501.176 199.167,501.176 Q200.175,501.176 200.859,500.84 Q201.543,500.504 201.987,499.928 Q202.431,499.352 202.683,498.572 Q202.935,497.792 203.079,496.904 L203.031,496.856 Q202.743,497.144 202.263,497.264 Q201.783,497.384 201.327,497.432 Q200.751,497.48 199.995,497.528 Q199.239,497.576 198.579,497.78 Q197.919,497.984 197.451,498.404 Q196.983,498.824 196.983,499.592 z M205.215,499.4 Q205.143,499.736 205.059,500.048 Q204.975,500.36 204.975,500.624 Q204.975,500.888 205.095,501.032 Q205.215,501.176 205.551,501.176 Q205.791,501.176 206.031,501.116 Q206.271,501.056 206.511,501.032 L206.079,503 Q205.551,503.12 205.023,503.228 Q204.495,503.336 203.943,503.336 Q203.247,503.336 202.791,502.904 Q202.335,502.472 202.287,501.752 Q201.471,502.568 200.367,502.952 Q199.263,503.336 198.111,503.336 Q197.343,503.336 196.647,503.12 Q195.951,502.904 195.411,502.496 Q194.871,502.088 194.559,501.464 Q194.247,500.84 194.247,500.024 Q194.247,498.872 194.679,498.092 Q195.111,497.312 195.831,496.808 Q196.551,496.304 197.487,496.064 Q198.423,495.824 199.455,495.752 Q200.847,495.656 202.191,495.536 Q202.935,495.488 203.283,495.044 Q203.631,494.6 203.631,493.904 Q203.631,493.016 203.007,492.716 Q202.383,492.416 201.543,492.416 Q200.391,492.416 199.563,492.812 Q198.735,493.208 198.447,494.36 L195.855,494.36 Q196.071,493.208 196.599,492.428 Q197.127,491.648 197.895,491.156 Q198.663,490.664 199.635,490.46 Q200.607,490.256 201.711,490.256 Q203.391,490.256 204.339,490.58 Q205.287,490.904 205.731,491.36 Q206.175,491.816 206.271,492.308 Q206.367,492.8 206.367,493.136 Q206.367,493.952 206.127,495.008 z" fill="#F42300"/>
    <path d="M211.623,486.872 L214.287,486.872 L213.519,490.592 L215.991,490.592 L215.559,492.632 L213.087,492.632 L211.815,498.704 Q211.719,499.112 211.647,499.472 Q211.575,499.832 211.575,500.048 Q211.575,500.456 211.755,500.708 Q211.935,500.96 212.559,500.96 Q212.871,500.96 213.243,500.948 Q213.615,500.936 214.023,500.84 L213.567,502.856 Q213.039,502.976 212.439,503.048 Q211.839,503.12 211.311,503.12 Q210.567,503.12 210.087,502.928 Q209.607,502.736 209.331,502.412 Q209.055,502.088 208.947,501.668 Q208.839,501.248 208.839,500.816 Q208.839,500.456 208.899,500.024 Q208.959,499.592 209.007,499.424 L210.423,492.632 L208.263,492.632 L208.695,490.592 L210.855,490.592 z" fill="#F42300"/>
  </g>
</svg>
