<?xml version="1.0" encoding="UTF-8"?>
<!DOCTYPE svg PUBLIC "-//W3C//DTD SVG 1.1//EN" "http://www.w3.org/Graphics/SVG/1.1/DTD/svg11.dtd">
<svg version="1.1" xmlns="http://www.w3.org/2000/svg" xmlns:xlink="http://www.w3.org/1999/xlink" x="0" y="0" width="1000" height="700" viewBox="0, 0, 1000, 700">
  <g id="vgg16">
    <g>
      <g>
        <path d="M223.741,83.722 L211.735,83.722 L79.667,215.79 L79.667,587.982 L91.673,587.982 L223.741,455.914 L223.741,83.722 z" fill="#FFE6CC"/>
        <path d="M223.741,83.722 L211.735,83.722 L79.667,215.79 L79.667,587.982 L91.673,587.982 L223.741,455.914 L223.741,83.722 z" fill-opacity="0" stroke="#D79B00" stroke-width="1" stroke-miterlimit="10"/>
      </g>
      <path d="M223.241,83.222 L211.235,83.222 L79.167,215.29 L91.173,215.29 z" fill="#000000" fill-opacity="0.05"/>
      <path d="M223.241,83.222 L91.173,215.29 L91.173,587.482 L223.241,455.414 z" fill="#000000" fill-opacity="0.1"/>
      <path d="M91.673,587.982 L91.673,215.79 L223.741,83.722 M91.673,215.79 L79.667,215.79" fill-opacity="0" stroke="#D79B00" stroke-width="1" stroke-miterlimit="10"/>
      <g>
        <path d="M247.753,83.722 L235.747,83.722 L103.679,215.79 L103.679,587.982 L115.685,587.982 L247.753,455.914 L247.753,83.722 z" fill="#FFE6CC"/>
        <path d="M247.753,83.722 L235.747,83.722 L103.679,215.79 L103.679,587.982 L115.685,587.982 L247.753,455.914 L247.753,83.722 z" fill-opacity="0" stroke="#D79B00" stroke-width="1" stroke-miterlimit="10"/>
      </g>
      <path d="M247.253,83.222 L235.247,83.222 L103.179,215.29 L115.185,215.29 z" fill="#000000" fill-opacity="0.05"/>
      <path d="M247.253,83.222 L115.185,215.29 L115.185,587.482 L247.253,455.414 z" fill="#000000" fill-opacity="0.1"/>
      <path d="M115.685,587.982 L115.685,215.79 L247.753,83.722 M115.685,215.79 L103.679,215.79" fill-opacity="0" stroke="#D79B00" stroke-width="1" stroke-miterlimit="10"/>
      <g>
        <path d="M235.747,191.778 L223.741,191.778 L139.698,275.821 L139.698,479.926 L151.704,479.926 L235.747,395.883 L235.747,191.778 z" fill="#F8CECC"/>
        <path d="M235.747,191.778 L223.741,191.778 L139.698,275.821 L139.698,479.926 L151.704,479.926 L235.747,395.883 L235.747,191.778 z" fill-opacity="0" stroke="#B85450" stroke-width="1" stroke-miterlimit="10"/>
      </g>
      <path d="M235.247,191.278 L223.241,191.278 L139.198,275.321 L151.204,275.321 z" fill="#000000" fill-opacity="0.05"/>
      <path d="M235.247,191.278 L151.204,275.321 L151.204,479.426 L235.247,395.383 z" fill="#000000" fill-opacity="0.1"/>
      <path d="M151.704,479.926 L151.704,275.821 L235.747,191.778 M151.704,275.821 L139.698,275.821" fill-opacity="0" stroke="#B85450" stroke-width="1" stroke-miterlimit="10"/>
      <g>
        <path d="M253.756,191.778 L241.75,191.778 L157.707,275.821 L157.707,479.926 L169.713,479.926 L253.756,395.883 L253.756,191.778 z" fill="#FFE6CC"/>
        <path d="M253.756,191.778 L241.75,191.778 L157.707,275.821 L157.707,479.926 L169.713,479.926 L253.756,395.883 L253.756,191.778 z" fill-opacity="0" stroke="#D79B00" stroke-width="1" stroke-miterlimit="10"/>
      </g>
      <path d="M253.256,191.278 L241.25,191.278 L157.207,275.321 L169.213,275.321 z" fill="#000000" fill-opacity="0.05"/>
      <path d="M253.256,191.278 L169.213,275.321 L169.213,479.426 L253.256,395.383 z" fill="#000000" fill-opacity="0.1"/>
      <path d="M169.713,479.926 L169.713,275.821 L253.756,191.778 M169.713,275.821 L157.707,275.821" fill-opacity="0" stroke="#D79B00" stroke-width="1" stroke-miterlimit="10"/>
      <g>
        <path d="M276.568,191.778 L264.562,191.778 L180.519,275.821 L180.519,479.926 L192.525,479.926 L276.568,395.883 L276.568,191.778 z" fill="#FFE6CC"/>
        <path d="M276.568,191.778 L264.562,191.778 L180.519,275.821 L180.519,479.926 L192.525,479.926 L276.568,395.883 L276.568,191.778 z" fill-opacity="0" stroke="#D79B00" stroke-width="1" stroke-miterlimit="10"/>
      </g>
      <path d="M276.068,191.278 L264.062,191.278 L180.019,275.321 L192.025,275.321 z" fill="#000000" fill-opacity="0.05"/>
      <path d="M276.068,191.278 L192.025,275.321 L192.025,479.426 L276.068,395.383 z" fill="#000000" fill-opacity="0.1"/>
      <path d="M192.525,479.926 L192.525,275.821 L276.568,191.778 M192.525,275.821 L180.519,275.821" fill-opacity="0" stroke="#D79B00" stroke-width="1" stroke-miterlimit="10"/>
      <g>
        <path d="M283.772,247.306 L271.766,247.306 L223.741,295.331 L223.741,407.889 L235.747,407.889 L283.772,359.864 L283.772,247.306 z" fill="#F8CECC"/>
        <path d="M283.772,247.306 L271.766,247.306 L223.741,295.331 L223.741,407.889 L235.747,407.889 L283.772,359.864 L283.772,247.306 z" fill-opacity="0" stroke="#B85450" stroke-width="1" stroke-miterlimit="10"/>
      </g>
      <path d="M283.272,246.806 L271.266,246.806 L223.241,294.831 L235.247,294.831 z" fill="#000000" fill-opacity="0.05"/>
      <path d="M283.272,246.806 L235.247,294.831 L235.247,407.389 L283.272,359.364 z" fill="#000000" fill-opacity="0.1"/>
      <path d="M235.747,407.889 L235.747,295.331 L283.772,247.306 M235.747,295.331 L223.741,295.331" fill-opacity="0" stroke="#B85450" stroke-width="1" stroke-miterlimit="10"/>
      <g>
        <path d="M304.182,247.306 L292.176,247.306 L244.151,295.331 L244.151,407.889 L256.158,407.889 L304.182,359.864 L304.182,247.306 z" fill="#FFE6CC"/>
        <path d="M304.182,247.306 L292.176,247.306 L244.151,295.331 L244.151,407.889 L256.158,407.889 L304.182,359.864 L304.182,247.306 z" fill-opacity="0" stroke="#D79B00" stroke-width="1" stroke-miterlimit="10"/>
      </g>
      <path d="M303.682,246.806 L291.676,246.806 L243.651,294.831 L255.658,294.831 z" fill="#000000" fill-opacity="0.05"/>
      <path d="M303.682,246.806 L255.658,294.831 L255.658,407.389 L303.682,359.364 z" fill="#000000" fill-opacity="0.1"/>
      <path d="M256.158,407.889 L256.158,295.331 L304.182,247.306 M256.158,295.331 L244.151,295.331" fill-opacity="0" stroke="#D79B00" stroke-width="1" stroke-miterlimit="10"/>
      <g>
        <path d="M324.593,247.306 L312.587,247.306 L264.562,295.331 L264.562,407.889 L276.568,407.889 L324.593,359.864 L324.593,247.306 z" fill="#FFE6CC"/>
        <path d="M324.593,247.306 L312.587,247.306 L264.562,295.331 L264.562,407.889 L276.568,407.889 L324.593,359.864 L324.593,247.306 z" fill-opacity="0" stroke="#D79B00" stroke-width="1" stroke-miterlimit="10"/>
      </g>
      <path d="M324.093,246.806 L312.087,246.806 L264.062,294.831 L276.068,294.831 z" fill="#000000" fill-opacity="0.05"/>
      <path d="M324.093,246.806 L276.068,294.831 L276.068,407.389 L324.093,359.364 z" fill="#000000" fill-opacity="0.1"/>
      <path d="M276.568,407.889 L276.568,295.331 L324.593,247.306 M276.568,295.331 L264.562,295.331" fill-opacity="0" stroke="#D79B00" stroke-width="1" stroke-miterlimit="10"/>
      <g>
        <path d="M345.003,247.306 L332.997,247.306 L284.972,295.331 L284.972,407.889 L296.979,407.889 L345.003,359.864 L345.003,247.306 z" fill="#FFE6CC"/>
        <path d="M345.003,247.306 L332.997,247.306 L284.972,295.331 L284.972,407.889 L296.979,407.889 L345.003,359.864 L345.003,247.306 z" fill-opacity="0" stroke="#D79B00" stroke-width="1" stroke-miterlimit="10"/>
      </g>
      <path d="M344.503,246.806 L332.497,246.806 L284.472,294.831 L296.479,294.831 z" fill="#000000" fill-opacity="0.05"/>
      <path d="M344.503,246.806 L296.479,294.831 L296.479,407.389 L344.503,359.364 z" fill="#000000" fill-opacity="0.1"/>
      <path d="M296.979,407.889 L296.979,295.331 L345.003,247.306 M296.979,295.331 L284.972,295.331" fill-opacity="0" stroke="#D79B00" stroke-width="1" stroke-miterlimit="10"/>
      <g>
        <path d="M372.617,283.697 L348.605,283.697 L324.593,307.709 L324.593,371.498 L348.605,371.498 L372.617,347.486 L372.617,283.697 z" fill="#F8CECC"/>
        <path d="M372.617,283.697 L348.605,283.697 L324.593,307.709 L324.593,371.498 L348.605,371.498 L372.617,347.486 L372.617,283.697 z" fill-opacity="0" stroke="#B85450" stroke-width="1" stroke-miterlimit="10"/>
      </g>
      <path d="M372.117,283.197 L348.105,283.197 L324.093,307.209 L348.105,307.209 z" fill="#000000" fill-opacity="0.05"/>
      <path d="M372.117,283.197 L348.105,307.209 L348.105,370.998 L372.117,346.986 z" fill="#000000" fill-opacity="0.1"/>
      <path d="M348.605,371.498 L348.605,307.709 L372.617,283.697 M348.605,307.709 L324.593,307.709" fill-opacity="0" stroke="#B85450" stroke-width="1" stroke-miterlimit="10"/>
      <g>
        <path d="M403.833,283.697 L379.821,283.697 L355.809,307.709 L355.809,371.498 L379.821,371.498 L403.833,347.486 L403.833,283.697 z" fill="#FFE6CC"/>
        <path d="M403.833,283.697 L379.821,283.697 L355.809,307.709 L355.809,371.498 L379.821,371.498 L403.833,347.486 L403.833,283.697 z" fill-opacity="0" stroke="#D79B00" stroke-width="1" stroke-miterlimit="10"/>
      </g>
      <path d="M403.333,283.197 L379.321,283.197 L355.309,307.209 L379.321,307.209 z" fill="#000000" fill-opacity="0.05"/>
      <path d="M403.333,283.197 L379.321,307.209 L379.321,370.998 L403.333,346.986 z" fill="#000000" fill-opacity="0.1"/>
      <path d="M379.821,371.498 L379.821,307.709 L403.833,283.697 M379.821,307.709 L355.809,307.709" fill-opacity="0" stroke="#D79B00" stroke-width="1" stroke-miterlimit="10"/>
      <g>
        <path d="M433.849,283.697 L409.837,283.697 L385.824,307.709 L385.824,371.498 L409.837,371.498 L433.849,347.486 L433.849,283.697 z" fill="#FFE6CC"/>
        <path d="M433.849,283.697 L409.837,283.697 L385.824,307.709 L385.824,371.498 L409.837,371.498 L433.849,347.486 L433.849,283.697 z" fill-opacity="0" stroke="#D79B00" stroke-width="1" stroke-miterlimit="10"/>
      </g>
      <path d="M433.349,283.197 L409.337,283.197 L385.324,307.209 L409.337,307.209 z" fill="#000000" fill-opacity="0.05"/>
      <path d="M433.349,283.197 L409.337,307.209 L409.337,370.998 L433.349,346.986 z" fill="#000000" fill-opacity="0.1"/>
      <path d="M409.837,371.498 L409.837,307.709 L433.849,283.697 M409.837,307.709 L385.824,307.709" fill-opacity="0" stroke="#D79B00" stroke-width="1" stroke-miterlimit="10"/>
      <g>
        <path d="M463.864,283.697 L439.852,283.697 L415.84,307.709 L415.84,371.498 L439.852,371.498 L463.864,347.486 L463.864,283.697 z" fill="#FFE6CC"/>
        <path d="M463.864,283.697 L439.852,283.697 L415.84,307.709 L415.84,371.498 L439.852,371.498 L463.864,347.486 L463.864,283.697 z" fill-opacity="0" stroke="#D79B00" stroke-width="1" stroke-miterlimit="10"/>
      </g>
      <path d="M463.364,283.197 L439.352,283.197 L415.34,307.209 L439.352,307.209 z" fill="#000000" fill-opacity="0.05"/>
      <path d="M463.364,283.197 L439.352,307.209 L439.352,370.998 L463.364,346.986 z" fill="#000000" fill-opacity="0.1"/>
      <path d="M439.852,371.498 L439.852,307.709 L463.864,283.697 M439.852,307.709 L415.84,307.709" fill-opacity="0" stroke="#D79B00" stroke-width="1" stroke-miterlimit="10"/>
      <g>
        <path d="M493.88,303.591 L463.864,303.591 L451.858,315.597 L451.858,351.616 L481.874,351.616 L493.88,339.61 L493.88,303.591 z" fill="#F8CECC"/>
        <path d="M493.88,303.591 L463.864,303.591 L451.858,315.597 L451.858,351.616 L481.874,351.616 L493.88,339.61 L493.88,303.591 z" fill-opacity="0" stroke="#B85450" stroke-width="1" stroke-miterlimit="10"/>
      </g>
      <path d="M493.38,303.091 L463.364,303.091 L451.358,315.097 L481.374,315.097 z" fill="#000000" fill-opacity="0.05"/>
      <path d="M493.38,303.091 L481.374,315.097 L481.374,351.116 L493.38,339.11 z" fill="#000000" fill-opacity="0.1"/>
      <path d="M481.874,351.616 L481.874,315.597 L493.88,303.591 M481.874,315.597 L451.858,315.597" fill-opacity="0" stroke="#B85450" stroke-width="1" stroke-miterlimit="10"/>
      <g>
        <path d="M531.099,303.591 L501.083,303.591 L489.077,315.597 L489.077,351.616 L519.093,351.616 L531.099,339.61 L531.099,303.591 z" fill="#FFE6CC"/>
        <path d="M531.099,303.591 L501.083,303.591 L489.077,315.597 L489.077,351.616 L519.093,351.616 L531.099,339.61 L531.099,303.591 z" fill-opacity="0" stroke="#D79B00" stroke-width="1" stroke-miterlimit="10"/>
      </g>
      <path d="M530.599,303.091 L500.583,303.091 L488.577,315.097 L518.593,315.097 z" fill="#000000" fill-opacity="0.05"/>
      <path d="M530.599,303.091 L518.593,315.097 L518.593,351.116 L530.599,339.11 z" fill="#000000" fill-opacity="0.1"/>
      <path d="M519.093,351.616 L519.093,315.597 L531.099,303.591 M519.093,315.597 L489.077,315.597" fill-opacity="0" stroke="#D79B00" stroke-width="1" stroke-miterlimit="10"/>
      <g>
        <path d="M647.559,315.393 L616.343,315.393 L607.938,323.798 L607.938,339.79 L639.154,339.79 L647.559,331.386 L647.559,315.393 z" fill="#F8CECC"/>
        <path d="M647.559,315.393 L616.343,315.393 L607.938,323.798 L607.938,339.79 L639.154,339.79 L647.559,331.386 L647.559,315.393 z" fill-opacity="0" stroke="#B85450" stroke-width="1" stroke-miterlimit="10"/>
      </g>
      <path d="M647.059,314.893 L615.843,314.893 L607.438,323.298 L638.654,323.298 z" fill="#000000" fill-opacity="0.05"/>
      <path d="M647.059,314.893 L638.654,323.298 L638.654,339.29 L647.059,330.886 z" fill="#000000" fill-opacity="0.1"/>
      <path d="M639.154,339.79 L639.154,323.798 L647.559,315.393 M639.154,323.798 L607.938,323.798" fill-opacity="0" stroke="#B85450" stroke-width="1" stroke-miterlimit="10"/>
      <g>
        <path d="M738.806,322.789 L653.562,322.789 L649.96,326.391 L649.96,332.394 L735.204,332.394 L738.806,328.792 L738.806,322.789 z" fill="#DAE8FC"/>
        <path d="M738.806,322.789 L653.562,322.789 L649.96,326.391 L649.96,332.394 L735.204,332.394 L738.806,328.792 L738.806,322.789 z" fill-opacity="0" stroke="#6C8EBF" stroke-width="1" stroke-miterlimit="10"/>
      </g>
      <path d="M738.306,322.289 L653.062,322.289 L649.46,325.891 L734.704,325.891 z" fill="#000000" fill-opacity="0.05"/>
      <path d="M738.306,322.289 L734.704,325.891 L734.704,331.894 L738.306,328.292 z" fill="#000000" fill-opacity="0.1"/>
      <path d="M735.204,332.394 L735.204,326.391 L738.806,322.789 M735.204,326.391 L649.96,326.391" fill-opacity="0" stroke="#6C8EBF" stroke-width="1" stroke-miterlimit="10"/>
      <g>
        <path d="M830.053,322.801 L744.809,322.801 L741.207,326.403 L741.207,332.406 L826.451,332.406 L830.053,328.804 L830.053,322.801 z" fill="#DAE8FC"/>
        <path d="M830.053,322.801 L744.809,322.801 L741.207,326.403 L741.207,332.406 L826.451,332.406 L830.053,328.804 L830.053,322.801 z" fill-opacity="0" stroke="#6C8EBF" stroke-width="1" stroke-miterlimit="10"/>
      </g>
      <path d="M829.553,322.301 L744.309,322.301 L740.707,325.903 L825.951,325.903 z" fill="#000000" fill-opacity="0.05"/>
      <path d="M829.553,322.301 L825.951,325.903 L825.951,331.906 L829.553,328.304 z" fill="#000000" fill-opacity="0.1"/>
      <path d="M826.451,332.406 L826.451,326.403 L830.053,322.801 M826.451,326.403 L741.207,326.403" fill-opacity="0" stroke="#6C8EBF" stroke-width="1" stroke-miterlimit="10"/>
      <g>
        <path d="M878.077,322.801 L836.056,322.801 L832.454,326.403 L832.454,332.406 L874.475,332.406 L878.077,328.804 L878.077,322.801 z" fill="#DAE8FC"/>
        <path d="M878.077,322.801 L836.056,322.801 L832.454,326.403 L832.454,332.406 L874.475,332.406 L878.077,328.804 L878.077,322.801 z" fill-opacity="0" stroke="#6C8EBF" stroke-width="1" stroke-miterlimit="10"/>
      </g>
      <path d="M877.577,322.301 L835.556,322.301 L831.954,325.903 L873.975,325.903 z" fill="#000000" fill-opacity="0.05"/>
      <path d="M877.577,322.301 L873.975,325.903 L873.975,331.906 L877.577,328.304 z" fill="#000000" fill-opacity="0.1"/>
      <path d="M874.475,332.406 L874.475,326.403 L878.077,322.801 M874.475,326.403 L832.454,326.403" fill-opacity="0" stroke="#6C8EBF" stroke-width="1" stroke-miterlimit="10"/>
      <g>
        <path d="M706.389,443.907 L678.775,443.907 L670.37,452.312 L670.37,467.92 L697.985,467.92 L706.389,459.515 L706.389,443.907 z" fill="#FFE6CC"/>
        <path d="M706.389,443.907 L678.775,443.907 L670.37,452.312 L670.37,467.92 L697.985,467.92 L706.389,459.515 L706.389,443.907 z" fill-opacity="0" stroke="#D79B00" stroke-width="1" stroke-miterlimit="10"/>
      </g>
      <path d="M705.889,443.407 L678.275,443.407 L669.87,451.812 L697.485,451.812 z" fill="#000000" fill-opacity="0.05"/>
      <path d="M705.889,443.407 L697.485,451.812 L697.485,467.42 L705.889,459.015 z" fill="#000000" fill-opacity="0.1"/>
      <path d="M697.985,467.92 L697.985,452.312 L706.389,443.907 M697.985,452.312 L670.37,452.312" fill-opacity="0" stroke="#D79B00" stroke-width="1" stroke-miterlimit="10"/>
      <g>
        <path d="M706.389,479.926 L678.775,479.926 L670.37,488.33 L670.37,503.938 L697.985,503.938 L706.389,495.534 L706.389,479.926 z" fill="#F8CECC"/>
        <path d="M706.389,479.926 L678.775,479.926 L670.37,488.33 L670.37,503.938 L697.985,503.938 L706.389,495.534 L706.389,479.926 z" fill-opacity="0" stroke="#B85450" stroke-width="1" stroke-miterlimit="10"/>
      </g>
      <path d="M705.889,479.426 L678.275,479.426 L669.87,487.83 L697.485,487.83 z" fill="#000000" fill-opacity="0.05"/>
      <path d="M705.889,479.426 L697.485,487.83 L697.485,503.438 L705.889,495.034 z" fill="#000000" fill-opacity="0.1"/>
      <path d="M697.985,503.938 L697.985,488.33 L706.389,479.926 M697.985,488.33 L670.37,488.33" fill-opacity="0" stroke="#B85450" stroke-width="1" stroke-miterlimit="10"/>
      <g>
        <path d="M706.389,515.944 L678.775,515.944 L670.37,524.349 L670.37,539.957 L697.985,539.957 L706.389,531.552 L706.389,515.944 z" fill="#DAE8FC"/>
        <path d="M706.389,515.944 L678.775,515.944 L670.37,524.349 L670.37,539.957 L697.985,539.957 L706.389,531.552 L706.389,515.944 z" fill-opacity="0" stroke="#6C8EBF" stroke-width="1" stroke-miterlimit="10"/>
      </g>
      <path d="M705.889,515.444 L678.275,515.444 L669.87,523.849 L697.485,523.849 z" fill="#000000" fill-opacity="0.05"/>
      <path d="M705.889,515.444 L697.485,523.849 L697.485,539.457 L705.889,531.052 z" fill="#000000" fill-opacity="0.1"/>
      <path d="M697.985,539.957 L697.985,524.349 L706.389,515.944 M697.985,524.349 L670.37,524.349" fill-opacity="0" stroke="#6C8EBF" stroke-width="1" stroke-miterlimit="10"/>
      <g>
        <path d="M926.102,322.789 L884.08,322.789 L880.479,326.391 L880.479,332.394 L922.5,332.394 L926.102,328.792 L926.102,322.789 z" fill="#D5E8D4"/>
        <path d="M926.102,322.789 L884.08,322.789 L880.479,326.391 L880.479,332.394 L922.5,332.394 L926.102,328.792 L926.102,322.789 z" fill-opacity="0" stroke="#82B366" stroke-width="1" stroke-miterlimit="10"/>
      </g>
      <path d="M925.602,322.289 L883.58,322.289 L879.979,325.891 L922,325.891 z" fill="#000000" fill-opacity="0.05"/>
      <path d="M925.602,322.289 L922,325.891 L922,331.894 L925.602,328.292 z" fill="#000000" fill-opacity="0.1"/>
      <path d="M922.5,332.394 L922.5,326.391 L926.102,322.789 M922.5,326.391 L880.479,326.391" fill-opacity="0" stroke="#82B366" stroke-width="1" stroke-miterlimit="10"/>
      <g>
        <path d="M706.389,551.963 L678.775,551.963 L670.37,560.367 L670.37,575.975 L697.985,575.975 L706.389,567.571 L706.389,551.963 z" fill="#D5E8D4"/>
        <path d="M706.389,551.963 L678.775,551.963 L670.37,560.367 L670.37,575.975 L697.985,575.975 L706.389,567.571 L706.389,551.963 z" fill-opacity="0" stroke="#82B366" stroke-width="1" stroke-miterlimit="10"/>
      </g>
      <path d="M705.889,551.463 L678.275,551.463 L669.87,559.867 L697.485,559.867 z" fill="#000000" fill-opacity="0.05"/>
      <path d="M705.889,551.463 L697.485,559.867 L697.485,575.475 L705.889,567.071 z" fill="#000000" fill-opacity="0.1"/>
      <path d="M697.985,575.975 L697.985,560.367 L706.389,551.963 M697.985,560.367 L670.37,560.367" fill-opacity="0" stroke="#82B366" stroke-width="1" stroke-miterlimit="10"/>
      <text transform="matrix(1, 0, 0, 1, 239.449, 57.409)">
        <tspan x="-16.011" y="2.395" font-family="Helvetica" font-size="12" fill="#999999">conv1</tspan>
      </text>
      <text transform="matrix(1, 0, 0, 1, 276.668, 167.866)">
        <tspan x="-16.011" y="2.395" font-family="Helvetica" font-size="12" fill="#999999">conv2</tspan>
      </text>
      <text transform="matrix(1, 0, 0, 1, 313.888, 220.693)">
        <tspan x="-16.011" y="2.395" font-family="Helvetica" font-size="12" fill="#999999">conv3</tspan>
      </text>
      <text transform="matrix(1, 0, 0, 1, 408.736, 263.915)">
        <tspan x="-16.011" y="2.395" font-family="Helvetica" font-size="12" fill="#999999">conv4</tspan>
      </text>
      <text transform="matrix(1, 0, 0, 1, 546.807, 280.724)">
        <tspan x="-16.011" y="2.395" font-family="Helvetica" font-size="12" fill="#999999">conv5</tspan>
      </text>
      <text transform="matrix(1, 0, 0, 1, 693.283, 299.934)">
        <tspan x="-8.004" y="2.395" font-family="Helvetica" font-size="12" fill="#999999">fc6</tspan>
      </text>
      <text transform="matrix(1, 0, 0, 1, 784.529, 299.934)">
        <tspan x="-8.004" y="2.395" font-family="Helvetica" font-size="12" fill="#999999">fc7</tspan>
      </text>
      <text transform="matrix(1, 0, 0, 1, 855.366, 299.934)">
        <tspan x="-8.004" y="2.395" font-family="Helvetica" font-size="12" fill="#999999">fc8</tspan>
      </text>
      <text transform="matrix(1, 0, 0, 1, 102.579, 604.89)">
        <tspan x="-39.363" y="2.395" font-family="Helvetica" font-size="12" fill="#999999">224 x 224 x 64</tspan>
      </text>
      <text transform="matrix(1, 0, 0, 1, 239.449, 532.853)">
        <tspan x="-41.815" y="2.395" font-family="Helvetica" font-size="12" fill="#999999">112 x 112 x 128</tspan>
      </text>
      <text transform="matrix(1, 0, 0, 1, 312.687, 441.606)">
        <tspan x="-36.026" y="2.395" font-family="Helvetica" font-size="12" fill="#999999">56 x 56 x 256</tspan>
      </text>
      <text transform="matrix(1, 0, 0, 1, 383.523, 383.977)">
        <tspan x="-36.026" y="2.395" font-family="Helvetica" font-size="12" fill="#999999">28 x 28 x 512</tspan>
      </text>
      <text transform="matrix(1, 0, 0, 1, 522.795, 365.968)">
        <tspan x="-36.026" y="2.395" font-family="Helvetica" font-size="12" fill="#999999">14 x 14 x 512</tspan>
      </text>
      <g>
        <path d="M565.917,303.591 L535.901,303.591 L523.895,315.597 L523.895,351.616 L553.911,351.616 L565.917,339.61 L565.917,303.591 z" fill="#FFE6CC"/>
        <path d="M565.917,303.591 L535.901,303.591 L523.895,315.597 L523.895,351.616 L553.911,351.616 L565.917,339.61 L565.917,303.591 z" fill-opacity="0" stroke="#D79B00" stroke-width="1" stroke-miterlimit="10"/>
      </g>
      <path d="M565.417,303.091 L535.401,303.091 L523.395,315.097 L553.411,315.097 z" fill="#000000" fill-opacity="0.05"/>
      <path d="M565.417,303.091 L553.411,315.097 L553.411,351.116 L565.417,339.11 z" fill="#000000" fill-opacity="0.1"/>
      <path d="M553.911,351.616 L553.911,315.597 L565.917,303.591 M553.911,315.597 L523.895,315.597" fill-opacity="0" stroke="#D79B00" stroke-width="1" stroke-miterlimit="10"/>
      <g>
        <path d="M603.136,303.579 L573.121,303.579 L561.114,315.585 L561.114,351.604 L591.13,351.604 L603.136,339.598 L603.136,303.579 z" fill="#FFE6CC"/>
        <path d="M603.136,303.579 L573.121,303.579 L561.114,315.585 L561.114,351.604 L591.13,351.604 L603.136,339.598 L603.136,303.579 z" fill-opacity="0" stroke="#D79B00" stroke-width="1" stroke-miterlimit="10"/>
      </g>
      <path d="M602.636,303.079 L572.621,303.079 L560.614,315.085 L590.63,315.085 z" fill="#000000" fill-opacity="0.05"/>
      <path d="M602.636,303.079 L590.63,315.085 L590.63,351.104 L602.636,339.098 z" fill="#000000" fill-opacity="0.1"/>
      <path d="M591.13,351.604 L591.13,315.585 L603.136,303.579 M591.13,315.585 L561.114,315.585" fill-opacity="0" stroke="#D79B00" stroke-width="1" stroke-miterlimit="10"/>
      <text transform="matrix(1, 0, 0, 1, 621.246, 392.381)">
        <tspan x="-29.353" y="2.395" font-family="Helvetica" font-size="12" fill="#999999">7 x 7 x 512</tspan>
      </text>
      <path d="M623.126,379.218 L623.498,349.479" fill-opacity="0" stroke="#999999" stroke-width="1" stroke-miterlimit="10"/>
      <g>
        <path d="M623.57,343.176 L627.665,351.64 L623.498,349.479 L619.26,351.532 z" fill="#999999"/>
        <path d="M623.57,343.176 L627.665,351.64 L623.498,349.479 L619.26,351.532 z" fill-opacity="0" stroke="#999999" stroke-width="1" stroke-miterlimit="10"/>
      </g>
      <text transform="matrix(1, 0, 0, 1, 740.107, 345.557)">
        <tspan x="-32.689" y="2.395" font-family="Helvetica" font-size="12" fill="#999999">1 x 1 x 4096</tspan>
      </text>
      <text transform="matrix(1, 0, 0, 1, 879.378, 345.557)">
        <tspan x="-32.689" y="2.395" font-family="Helvetica" font-size="12" fill="#999999">1 x 1 x 1000</tspan>
      </text>
      <text transform="matrix(1, 0, 0, 1, 795.342, 453.613)">
        <tspan x="-74.445" y="2.395" font-family="Helvetica-Bold" font-size="12" fill="#999999">convolutional + ReLU</tspan>
      </text>
      <text transform="matrix(1, 0, 0, 1, 763.921, 489.631)">
        <tspan x="-43.024" y="2.395" font-family="Helvetica-Bold" font-size="12" fill="#999999">max pooling</tspan>
      </text>
      <text transform="matrix(1, 0, 0, 1, 801.353, 526.85)">
        <tspan x="-80.457" y="2.395" font-family="Helvetica-Bold" font-size="12" fill="#999999">fully connected + ReLU</tspan>
      </text>
      <text transform="matrix(1, 0, 0, 1, 747.919, 560.468)">
        <tspan x="-28.223" y="2.395" font-family="Helvetica-Bold" font-size="12" fill="#999999">softmax</tspan>
      </text>
    </g>
  </g>
</svg>
